<mxfile host="Electron" agent="Mozilla/5.0 (Windows NT 10.0; Win64; x64) AppleWebKit/537.36 (KHTML, like Gecko) draw.io/26.0.16 Chrome/132.0.6834.196 Electron/34.2.0 Safari/537.36" version="26.0.16">
  <diagram name="PÃ¡gina-1" id="_x9iGNapCZ-zkkeJMan6">
    <mxGraphModel dx="3453" dy="2020" grid="1" gridSize="10" guides="1" tooltips="1" connect="1" arrows="1" fold="1" page="1" pageScale="1" pageWidth="827" pageHeight="1169" math="0" shadow="0">
      <root>
        <mxCell id="0" />
        <mxCell id="1" parent="0" />
        <mxCell id="kgnqb2DBGd6a5PuqriNk-26" value="Parametros del Sistema" style="swimlane;fontStyle=1;align=center;verticalAlign=top;childLayout=stackLayout;horizontal=1;startSize=26;horizontalStack=0;resizeParent=1;resizeParentMax=0;resizeLast=0;collapsible=1;marginBottom=0;whiteSpace=wrap;html=1;" parent="1" vertex="1">
          <mxGeometry x="140" y="280" width="160" height="190" as="geometry" />
        </mxCell>
        <mxCell id="kgnqb2DBGd6a5PuqriNk-27" value="nombreEmpresa&lt;div&gt;&lt;br&gt;&lt;/div&gt;" style="text;strokeColor=none;fillColor=none;align=left;verticalAlign=top;spacingLeft=4;spacingRight=4;overflow=hidden;rotatable=0;points=[[0,0.5],[1,0.5]];portConstraint=eastwest;whiteSpace=wrap;html=1;" parent="kgnqb2DBGd6a5PuqriNk-26" vertex="1">
          <mxGeometry y="26" width="160" height="26" as="geometry" />
        </mxCell>
        <mxCell id="kgnqb2DBGd6a5PuqriNk-31" value="&lt;div&gt;logo&lt;/div&gt;" style="text;strokeColor=none;fillColor=none;align=left;verticalAlign=top;spacingLeft=4;spacingRight=4;overflow=hidden;rotatable=0;points=[[0,0.5],[1,0.5]];portConstraint=eastwest;whiteSpace=wrap;html=1;" parent="kgnqb2DBGd6a5PuqriNk-26" vertex="1">
          <mxGeometry y="52" width="160" height="26" as="geometry" />
        </mxCell>
        <mxCell id="kgnqb2DBGd6a5PuqriNk-32" value="&lt;div&gt;Idioma&lt;/div&gt;" style="text;strokeColor=none;fillColor=none;align=left;verticalAlign=top;spacingLeft=4;spacingRight=4;overflow=hidden;rotatable=0;points=[[0,0.5],[1,0.5]];portConstraint=eastwest;whiteSpace=wrap;html=1;" parent="kgnqb2DBGd6a5PuqriNk-26" vertex="1">
          <mxGeometry y="78" width="160" height="26" as="geometry" />
        </mxCell>
        <mxCell id="kgnqb2DBGd6a5PuqriNk-34" value="&lt;div&gt;horario&lt;/div&gt;" style="text;strokeColor=none;fillColor=none;align=left;verticalAlign=top;spacingLeft=4;spacingRight=4;overflow=hidden;rotatable=0;points=[[0,0.5],[1,0.5]];portConstraint=eastwest;whiteSpace=wrap;html=1;" parent="kgnqb2DBGd6a5PuqriNk-26" vertex="1">
          <mxGeometry y="104" width="160" height="26" as="geometry" />
        </mxCell>
        <mxCell id="kgnqb2DBGd6a5PuqriNk-33" value="&lt;div&gt;tiempoVencimiento&lt;/div&gt;" style="text;strokeColor=none;fillColor=none;align=left;verticalAlign=top;spacingLeft=4;spacingRight=4;overflow=hidden;rotatable=0;points=[[0,0.5],[1,0.5]];portConstraint=eastwest;whiteSpace=wrap;html=1;" parent="kgnqb2DBGd6a5PuqriNk-26" vertex="1">
          <mxGeometry y="130" width="160" height="26" as="geometry" />
        </mxCell>
        <mxCell id="kgnqb2DBGd6a5PuqriNk-28" value="&lt;div&gt;prioridad&lt;/div&gt;" style="text;strokeColor=none;fillColor=none;align=left;verticalAlign=top;spacingLeft=4;spacingRight=4;overflow=hidden;rotatable=0;points=[[0,0.5],[1,0.5]];portConstraint=eastwest;whiteSpace=wrap;html=1;" parent="kgnqb2DBGd6a5PuqriNk-26" vertex="1">
          <mxGeometry y="156" width="160" height="26" as="geometry" />
        </mxCell>
        <mxCell id="kgnqb2DBGd6a5PuqriNk-29" value="" style="line;strokeWidth=1;fillColor=none;align=left;verticalAlign=middle;spacingTop=-1;spacingLeft=3;spacingRight=3;rotatable=0;labelPosition=right;points=[];portConstraint=eastwest;strokeColor=inherit;" parent="kgnqb2DBGd6a5PuqriNk-26" vertex="1">
          <mxGeometry y="182" width="160" height="8" as="geometry" />
        </mxCell>
        <mxCell id="kgnqb2DBGd6a5PuqriNk-35" value="Administrador" style="swimlane;fontStyle=1;align=center;verticalAlign=top;childLayout=stackLayout;horizontal=1;startSize=26;horizontalStack=0;resizeParent=1;resizeParentMax=0;resizeLast=0;collapsible=1;marginBottom=0;whiteSpace=wrap;html=1;" parent="1" vertex="1">
          <mxGeometry x="140" y="550" width="160" height="138" as="geometry" />
        </mxCell>
        <mxCell id="kgnqb2DBGd6a5PuqriNk-36" value="nombre&lt;div&gt;&lt;br&gt;&lt;/div&gt;" style="text;strokeColor=none;fillColor=none;align=left;verticalAlign=top;spacingLeft=4;spacingRight=4;overflow=hidden;rotatable=0;points=[[0,0.5],[1,0.5]];portConstraint=eastwest;whiteSpace=wrap;html=1;" parent="kgnqb2DBGd6a5PuqriNk-35" vertex="1">
          <mxGeometry y="26" width="160" height="26" as="geometry" />
        </mxCell>
        <mxCell id="kgnqb2DBGd6a5PuqriNk-37" value="&lt;div&gt;Identificador&amp;nbsp;&lt;/div&gt;" style="text;strokeColor=none;fillColor=none;align=left;verticalAlign=top;spacingLeft=4;spacingRight=4;overflow=hidden;rotatable=0;points=[[0,0.5],[1,0.5]];portConstraint=eastwest;whiteSpace=wrap;html=1;" parent="kgnqb2DBGd6a5PuqriNk-35" vertex="1">
          <mxGeometry y="52" width="160" height="26" as="geometry" />
        </mxCell>
        <mxCell id="kgnqb2DBGd6a5PuqriNk-38" value="" style="line;strokeWidth=1;fillColor=none;align=left;verticalAlign=middle;spacingTop=-1;spacingLeft=3;spacingRight=3;rotatable=0;labelPosition=right;points=[];portConstraint=eastwest;strokeColor=inherit;" parent="kgnqb2DBGd6a5PuqriNk-35" vertex="1">
          <mxGeometry y="78" width="160" height="8" as="geometry" />
        </mxCell>
        <mxCell id="kgnqb2DBGd6a5PuqriNk-40" value="+ Establecer()" style="text;strokeColor=none;fillColor=none;align=left;verticalAlign=top;spacingLeft=4;spacingRight=4;overflow=hidden;rotatable=0;points=[[0,0.5],[1,0.5]];portConstraint=eastwest;whiteSpace=wrap;html=1;" parent="kgnqb2DBGd6a5PuqriNk-35" vertex="1">
          <mxGeometry y="86" width="160" height="26" as="geometry" />
        </mxCell>
        <mxCell id="kgnqb2DBGd6a5PuqriNk-39" value="+ Modificar()" style="text;strokeColor=none;fillColor=none;align=left;verticalAlign=top;spacingLeft=4;spacingRight=4;overflow=hidden;rotatable=0;points=[[0,0.5],[1,0.5]];portConstraint=eastwest;whiteSpace=wrap;html=1;" parent="kgnqb2DBGd6a5PuqriNk-35" vertex="1">
          <mxGeometry y="112" width="160" height="26" as="geometry" />
        </mxCell>
        <mxCell id="kgnqb2DBGd6a5PuqriNk-41" value="Extends" style="endArrow=block;endSize=16;endFill=0;html=1;rounded=0;entryX=0.5;entryY=1;entryDx=0;entryDy=0;exitX=0.5;exitY=0;exitDx=0;exitDy=0;" parent="1" source="kgnqb2DBGd6a5PuqriNk-35" target="kgnqb2DBGd6a5PuqriNk-26" edge="1">
          <mxGeometry width="160" relative="1" as="geometry">
            <mxPoint x="70" y="520" as="sourcePoint" />
            <mxPoint x="230" y="520" as="targetPoint" />
          </mxGeometry>
        </mxCell>
        <mxCell id="kgnqb2DBGd6a5PuqriNk-43" value="Roles y Permisos" style="swimlane;fontStyle=1;align=center;verticalAlign=top;childLayout=stackLayout;horizontal=1;startSize=26;horizontalStack=0;resizeParent=1;resizeParentMax=0;resizeLast=0;collapsible=1;marginBottom=0;whiteSpace=wrap;html=1;" parent="1" vertex="1">
          <mxGeometry x="560" y="280" width="160" height="190" as="geometry" />
        </mxCell>
        <mxCell id="kgnqb2DBGd6a5PuqriNk-44" value="permisos&lt;div&gt;&lt;br&gt;&lt;/div&gt;" style="text;strokeColor=none;fillColor=none;align=left;verticalAlign=top;spacingLeft=4;spacingRight=4;overflow=hidden;rotatable=0;points=[[0,0.5],[1,0.5]];portConstraint=eastwest;whiteSpace=wrap;html=1;" parent="kgnqb2DBGd6a5PuqriNk-43" vertex="1">
          <mxGeometry y="26" width="160" height="26" as="geometry" />
        </mxCell>
        <mxCell id="kgnqb2DBGd6a5PuqriNk-45" value="&lt;div&gt;logo&lt;/div&gt;" style="text;strokeColor=none;fillColor=none;align=left;verticalAlign=top;spacingLeft=4;spacingRight=4;overflow=hidden;rotatable=0;points=[[0,0.5],[1,0.5]];portConstraint=eastwest;whiteSpace=wrap;html=1;" parent="kgnqb2DBGd6a5PuqriNk-43" vertex="1">
          <mxGeometry y="52" width="160" height="26" as="geometry" />
        </mxCell>
        <mxCell id="kgnqb2DBGd6a5PuqriNk-46" value="&lt;div&gt;Idioma&lt;/div&gt;" style="text;strokeColor=none;fillColor=none;align=left;verticalAlign=top;spacingLeft=4;spacingRight=4;overflow=hidden;rotatable=0;points=[[0,0.5],[1,0.5]];portConstraint=eastwest;whiteSpace=wrap;html=1;" parent="kgnqb2DBGd6a5PuqriNk-43" vertex="1">
          <mxGeometry y="78" width="160" height="26" as="geometry" />
        </mxCell>
        <mxCell id="kgnqb2DBGd6a5PuqriNk-47" value="&lt;div&gt;horario&lt;/div&gt;" style="text;strokeColor=none;fillColor=none;align=left;verticalAlign=top;spacingLeft=4;spacingRight=4;overflow=hidden;rotatable=0;points=[[0,0.5],[1,0.5]];portConstraint=eastwest;whiteSpace=wrap;html=1;" parent="kgnqb2DBGd6a5PuqriNk-43" vertex="1">
          <mxGeometry y="104" width="160" height="26" as="geometry" />
        </mxCell>
        <mxCell id="kgnqb2DBGd6a5PuqriNk-48" value="&lt;div&gt;tiempoVencimiento&lt;/div&gt;" style="text;strokeColor=none;fillColor=none;align=left;verticalAlign=top;spacingLeft=4;spacingRight=4;overflow=hidden;rotatable=0;points=[[0,0.5],[1,0.5]];portConstraint=eastwest;whiteSpace=wrap;html=1;" parent="kgnqb2DBGd6a5PuqriNk-43" vertex="1">
          <mxGeometry y="130" width="160" height="26" as="geometry" />
        </mxCell>
        <mxCell id="kgnqb2DBGd6a5PuqriNk-49" value="&lt;div&gt;prioridad&lt;/div&gt;" style="text;strokeColor=none;fillColor=none;align=left;verticalAlign=top;spacingLeft=4;spacingRight=4;overflow=hidden;rotatable=0;points=[[0,0.5],[1,0.5]];portConstraint=eastwest;whiteSpace=wrap;html=1;" parent="kgnqb2DBGd6a5PuqriNk-43" vertex="1">
          <mxGeometry y="156" width="160" height="26" as="geometry" />
        </mxCell>
        <mxCell id="kgnqb2DBGd6a5PuqriNk-50" value="" style="line;strokeWidth=1;fillColor=none;align=left;verticalAlign=middle;spacingTop=-1;spacingLeft=3;spacingRight=3;rotatable=0;labelPosition=right;points=[];portConstraint=eastwest;strokeColor=inherit;" parent="kgnqb2DBGd6a5PuqriNk-43" vertex="1">
          <mxGeometry y="182" width="160" height="8" as="geometry" />
        </mxCell>
        <mxCell id="kgnqb2DBGd6a5PuqriNk-51" value="Administrador" style="swimlane;fontStyle=1;align=center;verticalAlign=top;childLayout=stackLayout;horizontal=1;startSize=26;horizontalStack=0;resizeParent=1;resizeParentMax=0;resizeLast=0;collapsible=1;marginBottom=0;whiteSpace=wrap;html=1;" parent="1" vertex="1">
          <mxGeometry x="560" y="630" width="160" height="190" as="geometry" />
        </mxCell>
        <mxCell id="kgnqb2DBGd6a5PuqriNk-52" value="&lt;div&gt;&lt;br&gt;&lt;/div&gt;" style="text;strokeColor=none;fillColor=none;align=left;verticalAlign=top;spacingLeft=4;spacingRight=4;overflow=hidden;rotatable=0;points=[[0,0.5],[1,0.5]];portConstraint=eastwest;whiteSpace=wrap;html=1;" parent="kgnqb2DBGd6a5PuqriNk-51" vertex="1">
          <mxGeometry y="26" width="160" height="26" as="geometry" />
        </mxCell>
        <mxCell id="kgnqb2DBGd6a5PuqriNk-54" value="" style="line;strokeWidth=1;fillColor=none;align=left;verticalAlign=middle;spacingTop=-1;spacingLeft=3;spacingRight=3;rotatable=0;labelPosition=right;points=[];portConstraint=eastwest;strokeColor=inherit;" parent="kgnqb2DBGd6a5PuqriNk-51" vertex="1">
          <mxGeometry y="52" width="160" height="8" as="geometry" />
        </mxCell>
        <mxCell id="kgnqb2DBGd6a5PuqriNk-55" value="+ CrearRoles()" style="text;strokeColor=none;fillColor=none;align=left;verticalAlign=top;spacingLeft=4;spacingRight=4;overflow=hidden;rotatable=0;points=[[0,0.5],[1,0.5]];portConstraint=eastwest;whiteSpace=wrap;html=1;" parent="kgnqb2DBGd6a5PuqriNk-51" vertex="1">
          <mxGeometry y="60" width="160" height="26" as="geometry" />
        </mxCell>
        <mxCell id="kgnqb2DBGd6a5PuqriNk-56" value="+ Modificar()" style="text;strokeColor=none;fillColor=none;align=left;verticalAlign=top;spacingLeft=4;spacingRight=4;overflow=hidden;rotatable=0;points=[[0,0.5],[1,0.5]];portConstraint=eastwest;whiteSpace=wrap;html=1;" parent="kgnqb2DBGd6a5PuqriNk-51" vertex="1">
          <mxGeometry y="86" width="160" height="26" as="geometry" />
        </mxCell>
        <mxCell id="kgnqb2DBGd6a5PuqriNk-70" value="+ Eliminar()" style="text;strokeColor=none;fillColor=none;align=left;verticalAlign=top;spacingLeft=4;spacingRight=4;overflow=hidden;rotatable=0;points=[[0,0.5],[1,0.5]];portConstraint=eastwest;whiteSpace=wrap;html=1;" parent="kgnqb2DBGd6a5PuqriNk-51" vertex="1">
          <mxGeometry y="112" width="160" height="26" as="geometry" />
        </mxCell>
        <mxCell id="kgnqb2DBGd6a5PuqriNk-71" value="+ DefinirPermisos()" style="text;strokeColor=none;fillColor=none;align=left;verticalAlign=top;spacingLeft=4;spacingRight=4;overflow=hidden;rotatable=0;points=[[0,0.5],[1,0.5]];portConstraint=eastwest;whiteSpace=wrap;html=1;" parent="kgnqb2DBGd6a5PuqriNk-51" vertex="1">
          <mxGeometry y="138" width="160" height="26" as="geometry" />
        </mxCell>
        <mxCell id="kgnqb2DBGd6a5PuqriNk-69" value="+ AsignarRoles()" style="text;strokeColor=none;fillColor=none;align=left;verticalAlign=top;spacingLeft=4;spacingRight=4;overflow=hidden;rotatable=0;points=[[0,0.5],[1,0.5]];portConstraint=eastwest;whiteSpace=wrap;html=1;" parent="kgnqb2DBGd6a5PuqriNk-51" vertex="1">
          <mxGeometry y="164" width="160" height="26" as="geometry" />
        </mxCell>
        <mxCell id="kgnqb2DBGd6a5PuqriNk-59" value="Usuario&amp;nbsp;" style="swimlane;fontStyle=1;align=center;verticalAlign=top;childLayout=stackLayout;horizontal=1;startSize=26;horizontalStack=0;resizeParent=1;resizeParentMax=0;resizeLast=0;collapsible=1;marginBottom=0;whiteSpace=wrap;html=1;" parent="1" vertex="1">
          <mxGeometry x="750" y="630" width="160" height="112" as="geometry" />
        </mxCell>
        <mxCell id="kgnqb2DBGd6a5PuqriNk-60" value="&lt;div&gt;&lt;br&gt;&lt;/div&gt;" style="text;strokeColor=none;fillColor=none;align=left;verticalAlign=top;spacingLeft=4;spacingRight=4;overflow=hidden;rotatable=0;points=[[0,0.5],[1,0.5]];portConstraint=eastwest;whiteSpace=wrap;html=1;" parent="kgnqb2DBGd6a5PuqriNk-59" vertex="1">
          <mxGeometry y="26" width="160" height="26" as="geometry" />
        </mxCell>
        <mxCell id="kgnqb2DBGd6a5PuqriNk-62" value="" style="line;strokeWidth=1;fillColor=none;align=left;verticalAlign=middle;spacingTop=-1;spacingLeft=3;spacingRight=3;rotatable=0;labelPosition=right;points=[];portConstraint=eastwest;strokeColor=inherit;" parent="kgnqb2DBGd6a5PuqriNk-59" vertex="1">
          <mxGeometry y="52" width="160" height="8" as="geometry" />
        </mxCell>
        <mxCell id="kgnqb2DBGd6a5PuqriNk-79" value="+ Crear()" style="text;strokeColor=none;fillColor=none;align=left;verticalAlign=top;spacingLeft=4;spacingRight=4;overflow=hidden;rotatable=0;points=[[0,0.5],[1,0.5]];portConstraint=eastwest;whiteSpace=wrap;html=1;" parent="kgnqb2DBGd6a5PuqriNk-59" vertex="1">
          <mxGeometry y="60" width="160" height="26" as="geometry" />
        </mxCell>
        <mxCell id="kgnqb2DBGd6a5PuqriNk-63" value="+ ConsulatarTickets()" style="text;strokeColor=none;fillColor=none;align=left;verticalAlign=top;spacingLeft=4;spacingRight=4;overflow=hidden;rotatable=0;points=[[0,0.5],[1,0.5]];portConstraint=eastwest;whiteSpace=wrap;html=1;" parent="kgnqb2DBGd6a5PuqriNk-59" vertex="1">
          <mxGeometry y="86" width="160" height="26" as="geometry" />
        </mxCell>
        <mxCell id="kgnqb2DBGd6a5PuqriNk-64" value="Tecnico" style="swimlane;fontStyle=1;align=center;verticalAlign=top;childLayout=stackLayout;horizontal=1;startSize=26;horizontalStack=0;resizeParent=1;resizeParentMax=0;resizeLast=0;collapsible=1;marginBottom=0;whiteSpace=wrap;html=1;" parent="1" vertex="1">
          <mxGeometry x="370" y="630" width="160" height="138" as="geometry" />
        </mxCell>
        <mxCell id="kgnqb2DBGd6a5PuqriNk-65" value="&lt;div&gt;&lt;br&gt;&lt;/div&gt;" style="text;strokeColor=none;fillColor=none;align=left;verticalAlign=top;spacingLeft=4;spacingRight=4;overflow=hidden;rotatable=0;points=[[0,0.5],[1,0.5]];portConstraint=eastwest;whiteSpace=wrap;html=1;" parent="kgnqb2DBGd6a5PuqriNk-64" vertex="1">
          <mxGeometry y="26" width="160" height="26" as="geometry" />
        </mxCell>
        <mxCell id="kgnqb2DBGd6a5PuqriNk-67" value="" style="line;strokeWidth=1;fillColor=none;align=left;verticalAlign=middle;spacingTop=-1;spacingLeft=3;spacingRight=3;rotatable=0;labelPosition=right;points=[];portConstraint=eastwest;strokeColor=inherit;" parent="kgnqb2DBGd6a5PuqriNk-64" vertex="1">
          <mxGeometry y="52" width="160" height="8" as="geometry" />
        </mxCell>
        <mxCell id="kgnqb2DBGd6a5PuqriNk-68" value="+ GestionarTickets()" style="text;strokeColor=none;fillColor=none;align=left;verticalAlign=top;spacingLeft=4;spacingRight=4;overflow=hidden;rotatable=0;points=[[0,0.5],[1,0.5]];portConstraint=eastwest;whiteSpace=wrap;html=1;" parent="kgnqb2DBGd6a5PuqriNk-64" vertex="1">
          <mxGeometry y="60" width="160" height="26" as="geometry" />
        </mxCell>
        <mxCell id="kgnqb2DBGd6a5PuqriNk-78" value="+ Asignar()" style="text;strokeColor=none;fillColor=none;align=left;verticalAlign=top;spacingLeft=4;spacingRight=4;overflow=hidden;rotatable=0;points=[[0,0.5],[1,0.5]];portConstraint=eastwest;whiteSpace=wrap;html=1;" parent="kgnqb2DBGd6a5PuqriNk-64" vertex="1">
          <mxGeometry y="86" width="160" height="26" as="geometry" />
        </mxCell>
        <mxCell id="kgnqb2DBGd6a5PuqriNk-77" value="+ Resolver()" style="text;strokeColor=none;fillColor=none;align=left;verticalAlign=top;spacingLeft=4;spacingRight=4;overflow=hidden;rotatable=0;points=[[0,0.5],[1,0.5]];portConstraint=eastwest;whiteSpace=wrap;html=1;" parent="kgnqb2DBGd6a5PuqriNk-64" vertex="1">
          <mxGeometry y="112" width="160" height="26" as="geometry" />
        </mxCell>
        <mxCell id="kgnqb2DBGd6a5PuqriNk-72" value="Persona Roles" style="swimlane;fontStyle=1;align=center;verticalAlign=top;childLayout=stackLayout;horizontal=1;startSize=26;horizontalStack=0;resizeParent=1;resizeParentMax=0;resizeLast=0;collapsible=1;marginBottom=0;whiteSpace=wrap;html=1;" parent="1" vertex="1">
          <mxGeometry x="560" y="499" width="160" height="86" as="geometry" />
        </mxCell>
        <mxCell id="kgnqb2DBGd6a5PuqriNk-73" value="nombre&lt;div&gt;&lt;br&gt;&lt;/div&gt;" style="text;strokeColor=none;fillColor=none;align=left;verticalAlign=top;spacingLeft=4;spacingRight=4;overflow=hidden;rotatable=0;points=[[0,0.5],[1,0.5]];portConstraint=eastwest;whiteSpace=wrap;html=1;" parent="kgnqb2DBGd6a5PuqriNk-72" vertex="1">
          <mxGeometry y="26" width="160" height="26" as="geometry" />
        </mxCell>
        <mxCell id="kgnqb2DBGd6a5PuqriNk-74" value="&lt;div&gt;Identificador&amp;nbsp;&lt;/div&gt;" style="text;strokeColor=none;fillColor=none;align=left;verticalAlign=top;spacingLeft=4;spacingRight=4;overflow=hidden;rotatable=0;points=[[0,0.5],[1,0.5]];portConstraint=eastwest;whiteSpace=wrap;html=1;" parent="kgnqb2DBGd6a5PuqriNk-72" vertex="1">
          <mxGeometry y="52" width="160" height="26" as="geometry" />
        </mxCell>
        <mxCell id="kgnqb2DBGd6a5PuqriNk-75" value="" style="line;strokeWidth=1;fillColor=none;align=left;verticalAlign=middle;spacingTop=-1;spacingLeft=3;spacingRight=3;rotatable=0;labelPosition=right;points=[];portConstraint=eastwest;strokeColor=inherit;" parent="kgnqb2DBGd6a5PuqriNk-72" vertex="1">
          <mxGeometry y="78" width="160" height="8" as="geometry" />
        </mxCell>
        <mxCell id="kgnqb2DBGd6a5PuqriNk-82" value="Extends" style="endArrow=block;endSize=16;endFill=0;html=1;rounded=0;entryX=0.5;entryY=1;entryDx=0;entryDy=0;exitX=0.5;exitY=0;exitDx=0;exitDy=0;" parent="1" source="kgnqb2DBGd6a5PuqriNk-51" target="kgnqb2DBGd6a5PuqriNk-72" edge="1">
          <mxGeometry width="160" relative="1" as="geometry">
            <mxPoint x="480" y="550" as="sourcePoint" />
            <mxPoint x="480" y="470" as="targetPoint" />
          </mxGeometry>
        </mxCell>
        <mxCell id="kgnqb2DBGd6a5PuqriNk-83" value="Extends" style="endArrow=block;endSize=16;endFill=0;html=1;rounded=0;entryX=1;entryY=0.5;entryDx=0;entryDy=0;exitX=0.5;exitY=0;exitDx=0;exitDy=0;" parent="1" source="kgnqb2DBGd6a5PuqriNk-59" target="kgnqb2DBGd6a5PuqriNk-73" edge="1">
          <mxGeometry width="160" relative="1" as="geometry">
            <mxPoint x="810" y="590" as="sourcePoint" />
            <mxPoint x="810" y="510" as="targetPoint" />
          </mxGeometry>
        </mxCell>
        <mxCell id="kgnqb2DBGd6a5PuqriNk-84" value="Extends" style="endArrow=block;endSize=16;endFill=0;html=1;rounded=0;entryX=0;entryY=0.5;entryDx=0;entryDy=0;exitX=0.5;exitY=0;exitDx=0;exitDy=0;" parent="1" source="kgnqb2DBGd6a5PuqriNk-64" target="kgnqb2DBGd6a5PuqriNk-73" edge="1">
          <mxGeometry width="160" relative="1" as="geometry">
            <mxPoint x="440" y="610" as="sourcePoint" />
            <mxPoint x="440" y="530" as="targetPoint" />
          </mxGeometry>
        </mxCell>
        <mxCell id="kgnqb2DBGd6a5PuqriNk-85" value="Extends" style="endArrow=block;endSize=16;endFill=0;html=1;rounded=0;exitX=0.5;exitY=0;exitDx=0;exitDy=0;entryX=0.5;entryY=1;entryDx=0;entryDy=0;" parent="1" source="kgnqb2DBGd6a5PuqriNk-72" target="kgnqb2DBGd6a5PuqriNk-43" edge="1">
          <mxGeometry width="160" relative="1" as="geometry">
            <mxPoint x="480" y="490" as="sourcePoint" />
            <mxPoint x="670" y="480" as="targetPoint" />
          </mxGeometry>
        </mxCell>
        <mxCell id="kgnqb2DBGd6a5PuqriNk-86" value="Departamento o Area" style="swimlane;fontStyle=1;align=center;verticalAlign=top;childLayout=stackLayout;horizontal=1;startSize=26;horizontalStack=0;resizeParent=1;resizeParentMax=0;resizeLast=0;collapsible=1;marginBottom=0;whiteSpace=wrap;html=1;" parent="1" vertex="1">
          <mxGeometry x="981" y="279" width="160" height="112" as="geometry" />
        </mxCell>
        <mxCell id="kgnqb2DBGd6a5PuqriNk-87" value="&lt;div&gt;nombreDepartamento&lt;/div&gt;" style="text;strokeColor=none;fillColor=none;align=left;verticalAlign=top;spacingLeft=4;spacingRight=4;overflow=hidden;rotatable=0;points=[[0,0.5],[1,0.5]];portConstraint=eastwest;whiteSpace=wrap;html=1;" parent="kgnqb2DBGd6a5PuqriNk-86" vertex="1">
          <mxGeometry y="26" width="160" height="26" as="geometry" />
        </mxCell>
        <mxCell id="kgnqb2DBGd6a5PuqriNk-88" value="descripccionDepartamento" style="text;strokeColor=none;fillColor=none;align=left;verticalAlign=top;spacingLeft=4;spacingRight=4;overflow=hidden;rotatable=0;points=[[0,0.5],[1,0.5]];portConstraint=eastwest;whiteSpace=wrap;html=1;" parent="kgnqb2DBGd6a5PuqriNk-86" vertex="1">
          <mxGeometry y="52" width="160" height="26" as="geometry" />
        </mxCell>
        <mxCell id="kgnqb2DBGd6a5PuqriNk-89" value="tecnicosAsignados" style="text;strokeColor=none;fillColor=none;align=left;verticalAlign=top;spacingLeft=4;spacingRight=4;overflow=hidden;rotatable=0;points=[[0,0.5],[1,0.5]];portConstraint=eastwest;whiteSpace=wrap;html=1;" parent="kgnqb2DBGd6a5PuqriNk-86" vertex="1">
          <mxGeometry y="78" width="160" height="26" as="geometry" />
        </mxCell>
        <mxCell id="kgnqb2DBGd6a5PuqriNk-93" value="" style="line;strokeWidth=1;fillColor=none;align=left;verticalAlign=middle;spacingTop=-1;spacingLeft=3;spacingRight=3;rotatable=0;labelPosition=right;points=[];portConstraint=eastwest;strokeColor=inherit;" parent="kgnqb2DBGd6a5PuqriNk-86" vertex="1">
          <mxGeometry y="104" width="160" height="8" as="geometry" />
        </mxCell>
        <mxCell id="kgnqb2DBGd6a5PuqriNk-94" value="Tecnico" style="swimlane;fontStyle=1;align=center;verticalAlign=top;childLayout=stackLayout;horizontal=1;startSize=26;horizontalStack=0;resizeParent=1;resizeParentMax=0;resizeLast=0;collapsible=1;marginBottom=0;whiteSpace=wrap;html=1;" parent="1" vertex="1">
          <mxGeometry x="980" y="679" width="160" height="166" as="geometry" />
        </mxCell>
        <mxCell id="kgnqb2DBGd6a5PuqriNk-115" value="nombre&lt;div&gt;&lt;br&gt;&lt;/div&gt;" style="text;strokeColor=none;fillColor=none;align=left;verticalAlign=top;spacingLeft=4;spacingRight=4;overflow=hidden;rotatable=0;points=[[0,0.5],[1,0.5]];portConstraint=eastwest;whiteSpace=wrap;html=1;" parent="kgnqb2DBGd6a5PuqriNk-94" vertex="1">
          <mxGeometry y="26" width="160" height="26" as="geometry" />
        </mxCell>
        <mxCell id="kgnqb2DBGd6a5PuqriNk-116" value="&lt;div&gt;Identificador&amp;nbsp;&lt;/div&gt;" style="text;strokeColor=none;fillColor=none;align=left;verticalAlign=top;spacingLeft=4;spacingRight=4;overflow=hidden;rotatable=0;points=[[0,0.5],[1,0.5]];portConstraint=eastwest;whiteSpace=wrap;html=1;" parent="kgnqb2DBGd6a5PuqriNk-94" vertex="1">
          <mxGeometry y="52" width="160" height="28" as="geometry" />
        </mxCell>
        <mxCell id="kgnqb2DBGd6a5PuqriNk-96" value="" style="line;strokeWidth=1;fillColor=none;align=left;verticalAlign=middle;spacingTop=-1;spacingLeft=3;spacingRight=3;rotatable=0;labelPosition=right;points=[];portConstraint=eastwest;strokeColor=inherit;" parent="kgnqb2DBGd6a5PuqriNk-94" vertex="1">
          <mxGeometry y="80" width="160" height="8" as="geometry" />
        </mxCell>
        <mxCell id="kgnqb2DBGd6a5PuqriNk-97" value="+ GestionarTickets()" style="text;strokeColor=none;fillColor=none;align=left;verticalAlign=top;spacingLeft=4;spacingRight=4;overflow=hidden;rotatable=0;points=[[0,0.5],[1,0.5]];portConstraint=eastwest;whiteSpace=wrap;html=1;" parent="kgnqb2DBGd6a5PuqriNk-94" vertex="1">
          <mxGeometry y="88" width="160" height="26" as="geometry" />
        </mxCell>
        <mxCell id="kgnqb2DBGd6a5PuqriNk-98" value="+ Asignar()" style="text;strokeColor=none;fillColor=none;align=left;verticalAlign=top;spacingLeft=4;spacingRight=4;overflow=hidden;rotatable=0;points=[[0,0.5],[1,0.5]];portConstraint=eastwest;whiteSpace=wrap;html=1;" parent="kgnqb2DBGd6a5PuqriNk-94" vertex="1">
          <mxGeometry y="114" width="160" height="26" as="geometry" />
        </mxCell>
        <mxCell id="kgnqb2DBGd6a5PuqriNk-99" value="+ Resolver()" style="text;strokeColor=none;fillColor=none;align=left;verticalAlign=top;spacingLeft=4;spacingRight=4;overflow=hidden;rotatable=0;points=[[0,0.5],[1,0.5]];portConstraint=eastwest;whiteSpace=wrap;html=1;" parent="kgnqb2DBGd6a5PuqriNk-94" vertex="1">
          <mxGeometry y="140" width="160" height="26" as="geometry" />
        </mxCell>
        <mxCell id="kgnqb2DBGd6a5PuqriNk-104" value="Administrador" style="swimlane;fontStyle=1;align=center;verticalAlign=top;childLayout=stackLayout;horizontal=1;startSize=26;horizontalStack=0;resizeParent=1;resizeParentMax=0;resizeLast=0;collapsible=1;marginBottom=0;whiteSpace=wrap;html=1;" parent="1" vertex="1">
          <mxGeometry x="980" y="449" width="160" height="164" as="geometry" />
        </mxCell>
        <mxCell id="kgnqb2DBGd6a5PuqriNk-113" value="nombre&lt;div&gt;&lt;br&gt;&lt;/div&gt;" style="text;strokeColor=none;fillColor=none;align=left;verticalAlign=top;spacingLeft=4;spacingRight=4;overflow=hidden;rotatable=0;points=[[0,0.5],[1,0.5]];portConstraint=eastwest;whiteSpace=wrap;html=1;" parent="kgnqb2DBGd6a5PuqriNk-104" vertex="1">
          <mxGeometry y="26" width="160" height="26" as="geometry" />
        </mxCell>
        <mxCell id="kgnqb2DBGd6a5PuqriNk-114" value="&lt;div&gt;Identificador&amp;nbsp;&lt;/div&gt;" style="text;strokeColor=none;fillColor=none;align=left;verticalAlign=top;spacingLeft=4;spacingRight=4;overflow=hidden;rotatable=0;points=[[0,0.5],[1,0.5]];portConstraint=eastwest;whiteSpace=wrap;html=1;" parent="kgnqb2DBGd6a5PuqriNk-104" vertex="1">
          <mxGeometry y="52" width="160" height="26" as="geometry" />
        </mxCell>
        <mxCell id="kgnqb2DBGd6a5PuqriNk-106" value="" style="line;strokeWidth=1;fillColor=none;align=left;verticalAlign=middle;spacingTop=-1;spacingLeft=3;spacingRight=3;rotatable=0;labelPosition=right;points=[];portConstraint=eastwest;strokeColor=inherit;" parent="kgnqb2DBGd6a5PuqriNk-104" vertex="1">
          <mxGeometry y="78" width="160" height="8" as="geometry" />
        </mxCell>
        <mxCell id="kgnqb2DBGd6a5PuqriNk-107" value="+ Registar()" style="text;strokeColor=none;fillColor=none;align=left;verticalAlign=top;spacingLeft=4;spacingRight=4;overflow=hidden;rotatable=0;points=[[0,0.5],[1,0.5]];portConstraint=eastwest;whiteSpace=wrap;html=1;" parent="kgnqb2DBGd6a5PuqriNk-104" vertex="1">
          <mxGeometry y="86" width="160" height="26" as="geometry" />
        </mxCell>
        <mxCell id="kgnqb2DBGd6a5PuqriNk-108" value="+ Gestionar()" style="text;strokeColor=none;fillColor=none;align=left;verticalAlign=top;spacingLeft=4;spacingRight=4;overflow=hidden;rotatable=0;points=[[0,0.5],[1,0.5]];portConstraint=eastwest;whiteSpace=wrap;html=1;" parent="kgnqb2DBGd6a5PuqriNk-104" vertex="1">
          <mxGeometry y="112" width="160" height="26" as="geometry" />
        </mxCell>
        <mxCell id="kgnqb2DBGd6a5PuqriNk-109" value="+ Eliminar()" style="text;strokeColor=none;fillColor=none;align=left;verticalAlign=top;spacingLeft=4;spacingRight=4;overflow=hidden;rotatable=0;points=[[0,0.5],[1,0.5]];portConstraint=eastwest;whiteSpace=wrap;html=1;" parent="kgnqb2DBGd6a5PuqriNk-104" vertex="1">
          <mxGeometry y="138" width="160" height="26" as="geometry" />
        </mxCell>
        <mxCell id="kgnqb2DBGd6a5PuqriNk-112" value="Extends" style="endArrow=block;endSize=16;endFill=0;html=1;rounded=0;exitX=0.5;exitY=0;exitDx=0;exitDy=0;entryX=0.5;entryY=0.991;entryDx=0;entryDy=0;entryPerimeter=0;" parent="1" source="kgnqb2DBGd6a5PuqriNk-94" target="kgnqb2DBGd6a5PuqriNk-109" edge="1">
          <mxGeometry width="160" relative="1" as="geometry">
            <mxPoint x="850" y="519" as="sourcePoint" />
            <mxPoint x="1060" y="619" as="targetPoint" />
            <mxPoint as="offset" />
          </mxGeometry>
        </mxCell>
        <mxCell id="kgnqb2DBGd6a5PuqriNk-117" value="Extends" style="endArrow=block;endSize=16;endFill=0;html=1;rounded=0;exitX=0.5;exitY=0;exitDx=0;exitDy=0;entryX=0.5;entryY=1;entryDx=0;entryDy=0;" parent="1" source="kgnqb2DBGd6a5PuqriNk-104" target="kgnqb2DBGd6a5PuqriNk-86" edge="1">
          <mxGeometry width="160" relative="1" as="geometry">
            <mxPoint x="910" y="469" as="sourcePoint" />
            <mxPoint x="910" y="399" as="targetPoint" />
            <mxPoint as="offset" />
          </mxGeometry>
        </mxCell>
        <mxCell id="kgnqb2DBGd6a5PuqriNk-118" value="Gestion de Usuario" style="swimlane;fontStyle=1;align=center;verticalAlign=top;childLayout=stackLayout;horizontal=1;startSize=26;horizontalStack=0;resizeParent=1;resizeParentMax=0;resizeLast=0;collapsible=1;marginBottom=0;whiteSpace=wrap;html=1;" parent="1" vertex="1">
          <mxGeometry x="1210" y="280" width="160" height="190" as="geometry" />
        </mxCell>
        <mxCell id="kgnqb2DBGd6a5PuqriNk-119" value="&lt;div&gt;nombre&lt;/div&gt;" style="text;strokeColor=none;fillColor=none;align=left;verticalAlign=top;spacingLeft=4;spacingRight=4;overflow=hidden;rotatable=0;points=[[0,0.5],[1,0.5]];portConstraint=eastwest;whiteSpace=wrap;html=1;" parent="kgnqb2DBGd6a5PuqriNk-118" vertex="1">
          <mxGeometry y="26" width="160" height="26" as="geometry" />
        </mxCell>
        <mxCell id="kgnqb2DBGd6a5PuqriNk-120" value="CorreoElectronico" style="text;strokeColor=none;fillColor=none;align=left;verticalAlign=top;spacingLeft=4;spacingRight=4;overflow=hidden;rotatable=0;points=[[0,0.5],[1,0.5]];portConstraint=eastwest;whiteSpace=wrap;html=1;" parent="kgnqb2DBGd6a5PuqriNk-118" vertex="1">
          <mxGeometry y="52" width="160" height="26" as="geometry" />
        </mxCell>
        <mxCell id="kgnqb2DBGd6a5PuqriNk-121" value="nombreUsuario" style="text;strokeColor=none;fillColor=none;align=left;verticalAlign=top;spacingLeft=4;spacingRight=4;overflow=hidden;rotatable=0;points=[[0,0.5],[1,0.5]];portConstraint=eastwest;whiteSpace=wrap;html=1;" parent="kgnqb2DBGd6a5PuqriNk-118" vertex="1">
          <mxGeometry y="78" width="160" height="26" as="geometry" />
        </mxCell>
        <mxCell id="kgnqb2DBGd6a5PuqriNk-123" value="contraseÃ±a" style="text;strokeColor=none;fillColor=none;align=left;verticalAlign=top;spacingLeft=4;spacingRight=4;overflow=hidden;rotatable=0;points=[[0,0.5],[1,0.5]];portConstraint=eastwest;whiteSpace=wrap;html=1;" parent="kgnqb2DBGd6a5PuqriNk-118" vertex="1">
          <mxGeometry y="104" width="160" height="26" as="geometry" />
        </mxCell>
        <mxCell id="kgnqb2DBGd6a5PuqriNk-124" value="rol" style="text;strokeColor=none;fillColor=none;align=left;verticalAlign=top;spacingLeft=4;spacingRight=4;overflow=hidden;rotatable=0;points=[[0,0.5],[1,0.5]];portConstraint=eastwest;whiteSpace=wrap;html=1;" parent="kgnqb2DBGd6a5PuqriNk-118" vertex="1">
          <mxGeometry y="130" width="160" height="26" as="geometry" />
        </mxCell>
        <mxCell id="kgnqb2DBGd6a5PuqriNk-125" value="departamento" style="text;strokeColor=none;fillColor=none;align=left;verticalAlign=top;spacingLeft=4;spacingRight=4;overflow=hidden;rotatable=0;points=[[0,0.5],[1,0.5]];portConstraint=eastwest;whiteSpace=wrap;html=1;" parent="kgnqb2DBGd6a5PuqriNk-118" vertex="1">
          <mxGeometry y="156" width="160" height="26" as="geometry" />
        </mxCell>
        <mxCell id="kgnqb2DBGd6a5PuqriNk-122" value="" style="line;strokeWidth=1;fillColor=none;align=left;verticalAlign=middle;spacingTop=-1;spacingLeft=3;spacingRight=3;rotatable=0;labelPosition=right;points=[];portConstraint=eastwest;strokeColor=inherit;" parent="kgnqb2DBGd6a5PuqriNk-118" vertex="1">
          <mxGeometry y="182" width="160" height="8" as="geometry" />
        </mxCell>
        <mxCell id="kgnqb2DBGd6a5PuqriNk-126" value="Administrador" style="swimlane;fontStyle=1;align=center;verticalAlign=top;childLayout=stackLayout;horizontal=1;startSize=26;horizontalStack=0;resizeParent=1;resizeParentMax=0;resizeLast=0;collapsible=1;marginBottom=0;whiteSpace=wrap;html=1;" parent="1" vertex="1">
          <mxGeometry x="1210" y="527" width="160" height="216" as="geometry" />
        </mxCell>
        <mxCell id="kgnqb2DBGd6a5PuqriNk-127" value="nombre&lt;div&gt;&lt;br&gt;&lt;/div&gt;" style="text;strokeColor=none;fillColor=none;align=left;verticalAlign=top;spacingLeft=4;spacingRight=4;overflow=hidden;rotatable=0;points=[[0,0.5],[1,0.5]];portConstraint=eastwest;whiteSpace=wrap;html=1;" parent="kgnqb2DBGd6a5PuqriNk-126" vertex="1">
          <mxGeometry y="26" width="160" height="26" as="geometry" />
        </mxCell>
        <mxCell id="kgnqb2DBGd6a5PuqriNk-128" value="&lt;div&gt;Identificador&amp;nbsp;&lt;/div&gt;" style="text;strokeColor=none;fillColor=none;align=left;verticalAlign=top;spacingLeft=4;spacingRight=4;overflow=hidden;rotatable=0;points=[[0,0.5],[1,0.5]];portConstraint=eastwest;whiteSpace=wrap;html=1;" parent="kgnqb2DBGd6a5PuqriNk-126" vertex="1">
          <mxGeometry y="52" width="160" height="26" as="geometry" />
        </mxCell>
        <mxCell id="kgnqb2DBGd6a5PuqriNk-129" value="" style="line;strokeWidth=1;fillColor=none;align=left;verticalAlign=middle;spacingTop=-1;spacingLeft=3;spacingRight=3;rotatable=0;labelPosition=right;points=[];portConstraint=eastwest;strokeColor=inherit;" parent="kgnqb2DBGd6a5PuqriNk-126" vertex="1">
          <mxGeometry y="78" width="160" height="8" as="geometry" />
        </mxCell>
        <mxCell id="kgnqb2DBGd6a5PuqriNk-130" value="+ RegistarUsuario()" style="text;strokeColor=none;fillColor=none;align=left;verticalAlign=top;spacingLeft=4;spacingRight=4;overflow=hidden;rotatable=0;points=[[0,0.5],[1,0.5]];portConstraint=eastwest;whiteSpace=wrap;html=1;" parent="kgnqb2DBGd6a5PuqriNk-126" vertex="1">
          <mxGeometry y="86" width="160" height="26" as="geometry" />
        </mxCell>
        <mxCell id="kgnqb2DBGd6a5PuqriNk-131" value="+ AsignarRol()" style="text;strokeColor=none;fillColor=none;align=left;verticalAlign=top;spacingLeft=4;spacingRight=4;overflow=hidden;rotatable=0;points=[[0,0.5],[1,0.5]];portConstraint=eastwest;whiteSpace=wrap;html=1;" parent="kgnqb2DBGd6a5PuqriNk-126" vertex="1">
          <mxGeometry y="112" width="160" height="26" as="geometry" />
        </mxCell>
        <mxCell id="kgnqb2DBGd6a5PuqriNk-132" value="+ AsociarRol()" style="text;strokeColor=none;fillColor=none;align=left;verticalAlign=top;spacingLeft=4;spacingRight=4;overflow=hidden;rotatable=0;points=[[0,0.5],[1,0.5]];portConstraint=eastwest;whiteSpace=wrap;html=1;" parent="kgnqb2DBGd6a5PuqriNk-126" vertex="1">
          <mxGeometry y="138" width="160" height="26" as="geometry" />
        </mxCell>
        <mxCell id="kgnqb2DBGd6a5PuqriNk-133" value="+ Modificar()" style="text;strokeColor=none;fillColor=none;align=left;verticalAlign=top;spacingLeft=4;spacingRight=4;overflow=hidden;rotatable=0;points=[[0,0.5],[1,0.5]];portConstraint=eastwest;whiteSpace=wrap;html=1;" parent="kgnqb2DBGd6a5PuqriNk-126" vertex="1">
          <mxGeometry y="164" width="160" height="26" as="geometry" />
        </mxCell>
        <mxCell id="kgnqb2DBGd6a5PuqriNk-134" value="+ Desactivar()" style="text;strokeColor=none;fillColor=none;align=left;verticalAlign=top;spacingLeft=4;spacingRight=4;overflow=hidden;rotatable=0;points=[[0,0.5],[1,0.5]];portConstraint=eastwest;whiteSpace=wrap;html=1;" parent="kgnqb2DBGd6a5PuqriNk-126" vertex="1">
          <mxGeometry y="190" width="160" height="26" as="geometry" />
        </mxCell>
        <mxCell id="kgnqb2DBGd6a5PuqriNk-135" value="Extends" style="endArrow=block;endSize=16;endFill=0;html=1;rounded=0;exitX=0.5;exitY=0;exitDx=0;exitDy=0;entryX=0.5;entryY=1;entryDx=0;entryDy=0;" parent="1" source="kgnqb2DBGd6a5PuqriNk-126" target="kgnqb2DBGd6a5PuqriNk-118" edge="1">
          <mxGeometry width="160" relative="1" as="geometry">
            <mxPoint x="1190" y="528" as="sourcePoint" />
            <mxPoint x="1191" y="470" as="targetPoint" />
            <mxPoint as="offset" />
          </mxGeometry>
        </mxCell>
        <mxCell id="kgnqb2DBGd6a5PuqriNk-138" value="Definir Estados Tickets" style="swimlane;fontStyle=1;align=center;verticalAlign=top;childLayout=stackLayout;horizontal=1;startSize=26;horizontalStack=0;resizeParent=1;resizeParentMax=0;resizeLast=0;collapsible=1;marginBottom=0;whiteSpace=wrap;html=1;" parent="1" vertex="1">
          <mxGeometry x="1450" y="279" width="160" height="138" as="geometry" />
        </mxCell>
        <mxCell id="kgnqb2DBGd6a5PuqriNk-139" value="&lt;div&gt;nombreEstado&lt;/div&gt;" style="text;strokeColor=none;fillColor=none;align=left;verticalAlign=top;spacingLeft=4;spacingRight=4;overflow=hidden;rotatable=0;points=[[0,0.5],[1,0.5]];portConstraint=eastwest;whiteSpace=wrap;html=1;" parent="kgnqb2DBGd6a5PuqriNk-138" vertex="1">
          <mxGeometry y="26" width="160" height="26" as="geometry" />
        </mxCell>
        <mxCell id="kgnqb2DBGd6a5PuqriNk-140" value="descripccion" style="text;strokeColor=none;fillColor=none;align=left;verticalAlign=top;spacingLeft=4;spacingRight=4;overflow=hidden;rotatable=0;points=[[0,0.5],[1,0.5]];portConstraint=eastwest;whiteSpace=wrap;html=1;" parent="kgnqb2DBGd6a5PuqriNk-138" vertex="1">
          <mxGeometry y="52" width="160" height="26" as="geometry" />
        </mxCell>
        <mxCell id="kgnqb2DBGd6a5PuqriNk-141" value="estadoFinal" style="text;strokeColor=none;fillColor=none;align=left;verticalAlign=top;spacingLeft=4;spacingRight=4;overflow=hidden;rotatable=0;points=[[0,0.5],[1,0.5]];portConstraint=eastwest;whiteSpace=wrap;html=1;" parent="kgnqb2DBGd6a5PuqriNk-138" vertex="1">
          <mxGeometry y="78" width="160" height="26" as="geometry" />
        </mxCell>
        <mxCell id="kgnqb2DBGd6a5PuqriNk-142" value="estadoPermitido" style="text;strokeColor=none;fillColor=none;align=left;verticalAlign=top;spacingLeft=4;spacingRight=4;overflow=hidden;rotatable=0;points=[[0,0.5],[1,0.5]];portConstraint=eastwest;whiteSpace=wrap;html=1;" parent="kgnqb2DBGd6a5PuqriNk-138" vertex="1">
          <mxGeometry y="104" width="160" height="26" as="geometry" />
        </mxCell>
        <mxCell id="kgnqb2DBGd6a5PuqriNk-145" value="" style="line;strokeWidth=1;fillColor=none;align=left;verticalAlign=middle;spacingTop=-1;spacingLeft=3;spacingRight=3;rotatable=0;labelPosition=right;points=[];portConstraint=eastwest;strokeColor=inherit;" parent="kgnqb2DBGd6a5PuqriNk-138" vertex="1">
          <mxGeometry y="130" width="160" height="8" as="geometry" />
        </mxCell>
        <mxCell id="kgnqb2DBGd6a5PuqriNk-146" value="Administrador" style="swimlane;fontStyle=1;align=center;verticalAlign=top;childLayout=stackLayout;horizontal=1;startSize=26;horizontalStack=0;resizeParent=1;resizeParentMax=0;resizeLast=0;collapsible=1;marginBottom=0;whiteSpace=wrap;html=1;" parent="1" vertex="1">
          <mxGeometry x="1450" y="479" width="160" height="190" as="geometry" />
        </mxCell>
        <mxCell id="kgnqb2DBGd6a5PuqriNk-147" value="nombre&lt;div&gt;&lt;br&gt;&lt;/div&gt;" style="text;strokeColor=none;fillColor=none;align=left;verticalAlign=top;spacingLeft=4;spacingRight=4;overflow=hidden;rotatable=0;points=[[0,0.5],[1,0.5]];portConstraint=eastwest;whiteSpace=wrap;html=1;" parent="kgnqb2DBGd6a5PuqriNk-146" vertex="1">
          <mxGeometry y="26" width="160" height="26" as="geometry" />
        </mxCell>
        <mxCell id="kgnqb2DBGd6a5PuqriNk-148" value="&lt;div&gt;Identificador&amp;nbsp;&lt;/div&gt;" style="text;strokeColor=none;fillColor=none;align=left;verticalAlign=top;spacingLeft=4;spacingRight=4;overflow=hidden;rotatable=0;points=[[0,0.5],[1,0.5]];portConstraint=eastwest;whiteSpace=wrap;html=1;" parent="kgnqb2DBGd6a5PuqriNk-146" vertex="1">
          <mxGeometry y="52" width="160" height="26" as="geometry" />
        </mxCell>
        <mxCell id="kgnqb2DBGd6a5PuqriNk-149" value="" style="line;strokeWidth=1;fillColor=none;align=left;verticalAlign=middle;spacingTop=-1;spacingLeft=3;spacingRight=3;rotatable=0;labelPosition=right;points=[];portConstraint=eastwest;strokeColor=inherit;" parent="kgnqb2DBGd6a5PuqriNk-146" vertex="1">
          <mxGeometry y="78" width="160" height="8" as="geometry" />
        </mxCell>
        <mxCell id="kgnqb2DBGd6a5PuqriNk-150" value="+ GestionarEstados()" style="text;strokeColor=none;fillColor=none;align=left;verticalAlign=top;spacingLeft=4;spacingRight=4;overflow=hidden;rotatable=0;points=[[0,0.5],[1,0.5]];portConstraint=eastwest;whiteSpace=wrap;html=1;" parent="kgnqb2DBGd6a5PuqriNk-146" vertex="1">
          <mxGeometry y="86" width="160" height="26" as="geometry" />
        </mxCell>
        <mxCell id="kgnqb2DBGd6a5PuqriNk-151" value="+ NuevosEstados()" style="text;strokeColor=none;fillColor=none;align=left;verticalAlign=top;spacingLeft=4;spacingRight=4;overflow=hidden;rotatable=0;points=[[0,0.5],[1,0.5]];portConstraint=eastwest;whiteSpace=wrap;html=1;" parent="kgnqb2DBGd6a5PuqriNk-146" vertex="1">
          <mxGeometry y="112" width="160" height="26" as="geometry" />
        </mxCell>
        <mxCell id="kgnqb2DBGd6a5PuqriNk-153" value="+ Modificar()" style="text;strokeColor=none;fillColor=none;align=left;verticalAlign=top;spacingLeft=4;spacingRight=4;overflow=hidden;rotatable=0;points=[[0,0.5],[1,0.5]];portConstraint=eastwest;whiteSpace=wrap;html=1;" parent="kgnqb2DBGd6a5PuqriNk-146" vertex="1">
          <mxGeometry y="138" width="160" height="26" as="geometry" />
        </mxCell>
        <mxCell id="kgnqb2DBGd6a5PuqriNk-154" value="+ Eliminar()" style="text;strokeColor=none;fillColor=none;align=left;verticalAlign=top;spacingLeft=4;spacingRight=4;overflow=hidden;rotatable=0;points=[[0,0.5],[1,0.5]];portConstraint=eastwest;whiteSpace=wrap;html=1;" parent="kgnqb2DBGd6a5PuqriNk-146" vertex="1">
          <mxGeometry y="164" width="160" height="26" as="geometry" />
        </mxCell>
        <mxCell id="kgnqb2DBGd6a5PuqriNk-155" value="Extends" style="endArrow=block;endSize=16;endFill=0;html=1;rounded=0;exitX=0.5;exitY=0;exitDx=0;exitDy=0;entryX=0.5;entryY=1;entryDx=0;entryDy=0;" parent="1" source="kgnqb2DBGd6a5PuqriNk-146" target="kgnqb2DBGd6a5PuqriNk-138" edge="1">
          <mxGeometry width="160" relative="1" as="geometry">
            <mxPoint x="1430" y="527" as="sourcePoint" />
            <mxPoint x="1431" y="469" as="targetPoint" />
            <mxPoint as="offset" />
          </mxGeometry>
        </mxCell>
        <mxCell id="kgnqb2DBGd6a5PuqriNk-156" value="Gestion de Trabajo" style="swimlane;fontStyle=1;align=center;verticalAlign=top;childLayout=stackLayout;horizontal=1;startSize=26;horizontalStack=0;resizeParent=1;resizeParentMax=0;resizeLast=0;collapsible=1;marginBottom=0;whiteSpace=wrap;html=1;" parent="1" vertex="1">
          <mxGeometry x="1700" y="280" width="160" height="164" as="geometry" />
        </mxCell>
        <mxCell id="kgnqb2DBGd6a5PuqriNk-157" value="&lt;div&gt;nombreFlujoTrabajo&lt;/div&gt;" style="text;strokeColor=none;fillColor=none;align=left;verticalAlign=top;spacingLeft=4;spacingRight=4;overflow=hidden;rotatable=0;points=[[0,0.5],[1,0.5]];portConstraint=eastwest;whiteSpace=wrap;html=1;" parent="kgnqb2DBGd6a5PuqriNk-156" vertex="1">
          <mxGeometry y="26" width="160" height="26" as="geometry" />
        </mxCell>
        <mxCell id="kgnqb2DBGd6a5PuqriNk-158" value="estadosInvolucrados" style="text;strokeColor=none;fillColor=none;align=left;verticalAlign=top;spacingLeft=4;spacingRight=4;overflow=hidden;rotatable=0;points=[[0,0.5],[1,0.5]];portConstraint=eastwest;whiteSpace=wrap;html=1;" parent="kgnqb2DBGd6a5PuqriNk-156" vertex="1">
          <mxGeometry y="52" width="160" height="26" as="geometry" />
        </mxCell>
        <mxCell id="kgnqb2DBGd6a5PuqriNk-159" value="trancisionesPermitidas" style="text;strokeColor=none;fillColor=none;align=left;verticalAlign=top;spacingLeft=4;spacingRight=4;overflow=hidden;rotatable=0;points=[[0,0.5],[1,0.5]];portConstraint=eastwest;whiteSpace=wrap;html=1;" parent="kgnqb2DBGd6a5PuqriNk-156" vertex="1">
          <mxGeometry y="78" width="160" height="26" as="geometry" />
        </mxCell>
        <mxCell id="kgnqb2DBGd6a5PuqriNk-160" value="reglasTransicion" style="text;strokeColor=none;fillColor=none;align=left;verticalAlign=top;spacingLeft=4;spacingRight=4;overflow=hidden;rotatable=0;points=[[0,0.5],[1,0.5]];portConstraint=eastwest;whiteSpace=wrap;html=1;" parent="kgnqb2DBGd6a5PuqriNk-156" vertex="1">
          <mxGeometry y="104" width="160" height="26" as="geometry" />
        </mxCell>
        <mxCell id="kgnqb2DBGd6a5PuqriNk-171" value="accionAutomaticas" style="text;strokeColor=none;fillColor=none;align=left;verticalAlign=top;spacingLeft=4;spacingRight=4;overflow=hidden;rotatable=0;points=[[0,0.5],[1,0.5]];portConstraint=eastwest;whiteSpace=wrap;html=1;" parent="kgnqb2DBGd6a5PuqriNk-156" vertex="1">
          <mxGeometry y="130" width="160" height="26" as="geometry" />
        </mxCell>
        <mxCell id="kgnqb2DBGd6a5PuqriNk-161" value="" style="line;strokeWidth=1;fillColor=none;align=left;verticalAlign=middle;spacingTop=-1;spacingLeft=3;spacingRight=3;rotatable=0;labelPosition=right;points=[];portConstraint=eastwest;strokeColor=inherit;" parent="kgnqb2DBGd6a5PuqriNk-156" vertex="1">
          <mxGeometry y="156" width="160" height="8" as="geometry" />
        </mxCell>
        <mxCell id="kgnqb2DBGd6a5PuqriNk-162" value="Administrador" style="swimlane;fontStyle=1;align=center;verticalAlign=top;childLayout=stackLayout;horizontal=1;startSize=26;horizontalStack=0;resizeParent=1;resizeParentMax=0;resizeLast=0;collapsible=1;marginBottom=0;whiteSpace=wrap;html=1;" parent="1" vertex="1">
          <mxGeometry x="1700" y="670" width="160" height="112" as="geometry" />
        </mxCell>
        <mxCell id="kgnqb2DBGd6a5PuqriNk-163" value="nombre&lt;div&gt;&lt;br&gt;&lt;/div&gt;" style="text;strokeColor=none;fillColor=none;align=left;verticalAlign=top;spacingLeft=4;spacingRight=4;overflow=hidden;rotatable=0;points=[[0,0.5],[1,0.5]];portConstraint=eastwest;whiteSpace=wrap;html=1;" parent="kgnqb2DBGd6a5PuqriNk-162" vertex="1">
          <mxGeometry y="26" width="160" height="26" as="geometry" />
        </mxCell>
        <mxCell id="kgnqb2DBGd6a5PuqriNk-164" value="&lt;div&gt;Identificador&amp;nbsp;&lt;/div&gt;" style="text;strokeColor=none;fillColor=none;align=left;verticalAlign=top;spacingLeft=4;spacingRight=4;overflow=hidden;rotatable=0;points=[[0,0.5],[1,0.5]];portConstraint=eastwest;whiteSpace=wrap;html=1;" parent="kgnqb2DBGd6a5PuqriNk-162" vertex="1">
          <mxGeometry y="52" width="160" height="26" as="geometry" />
        </mxCell>
        <mxCell id="kgnqb2DBGd6a5PuqriNk-165" value="" style="line;strokeWidth=1;fillColor=none;align=left;verticalAlign=middle;spacingTop=-1;spacingLeft=3;spacingRight=3;rotatable=0;labelPosition=right;points=[];portConstraint=eastwest;strokeColor=inherit;" parent="kgnqb2DBGd6a5PuqriNk-162" vertex="1">
          <mxGeometry y="78" width="160" height="8" as="geometry" />
        </mxCell>
        <mxCell id="kgnqb2DBGd6a5PuqriNk-166" value="+ GestionarFlujos()" style="text;strokeColor=none;fillColor=none;align=left;verticalAlign=top;spacingLeft=4;spacingRight=4;overflow=hidden;rotatable=0;points=[[0,0.5],[1,0.5]];portConstraint=eastwest;whiteSpace=wrap;html=1;" parent="kgnqb2DBGd6a5PuqriNk-162" vertex="1">
          <mxGeometry y="86" width="160" height="26" as="geometry" />
        </mxCell>
        <mxCell id="kgnqb2DBGd6a5PuqriNk-172" value="Definir Estados Tickets" style="swimlane;fontStyle=1;align=center;verticalAlign=top;childLayout=stackLayout;horizontal=1;startSize=26;horizontalStack=0;resizeParent=1;resizeParentMax=0;resizeLast=0;collapsible=1;marginBottom=0;whiteSpace=wrap;html=1;" parent="1" vertex="1">
          <mxGeometry x="1700" y="486" width="160" height="138" as="geometry" />
        </mxCell>
        <mxCell id="kgnqb2DBGd6a5PuqriNk-173" value="&lt;div&gt;nombreEstado&lt;/div&gt;" style="text;strokeColor=none;fillColor=none;align=left;verticalAlign=top;spacingLeft=4;spacingRight=4;overflow=hidden;rotatable=0;points=[[0,0.5],[1,0.5]];portConstraint=eastwest;whiteSpace=wrap;html=1;" parent="kgnqb2DBGd6a5PuqriNk-172" vertex="1">
          <mxGeometry y="26" width="160" height="26" as="geometry" />
        </mxCell>
        <mxCell id="kgnqb2DBGd6a5PuqriNk-174" value="descripccion" style="text;strokeColor=none;fillColor=none;align=left;verticalAlign=top;spacingLeft=4;spacingRight=4;overflow=hidden;rotatable=0;points=[[0,0.5],[1,0.5]];portConstraint=eastwest;whiteSpace=wrap;html=1;" parent="kgnqb2DBGd6a5PuqriNk-172" vertex="1">
          <mxGeometry y="52" width="160" height="26" as="geometry" />
        </mxCell>
        <mxCell id="kgnqb2DBGd6a5PuqriNk-175" value="estadoFinal" style="text;strokeColor=none;fillColor=none;align=left;verticalAlign=top;spacingLeft=4;spacingRight=4;overflow=hidden;rotatable=0;points=[[0,0.5],[1,0.5]];portConstraint=eastwest;whiteSpace=wrap;html=1;" parent="kgnqb2DBGd6a5PuqriNk-172" vertex="1">
          <mxGeometry y="78" width="160" height="26" as="geometry" />
        </mxCell>
        <mxCell id="kgnqb2DBGd6a5PuqriNk-176" value="estadoPermitido" style="text;strokeColor=none;fillColor=none;align=left;verticalAlign=top;spacingLeft=4;spacingRight=4;overflow=hidden;rotatable=0;points=[[0,0.5],[1,0.5]];portConstraint=eastwest;whiteSpace=wrap;html=1;" parent="kgnqb2DBGd6a5PuqriNk-172" vertex="1">
          <mxGeometry y="104" width="160" height="26" as="geometry" />
        </mxCell>
        <mxCell id="kgnqb2DBGd6a5PuqriNk-177" value="" style="line;strokeWidth=1;fillColor=none;align=left;verticalAlign=middle;spacingTop=-1;spacingLeft=3;spacingRight=3;rotatable=0;labelPosition=right;points=[];portConstraint=eastwest;strokeColor=inherit;" parent="kgnqb2DBGd6a5PuqriNk-172" vertex="1">
          <mxGeometry y="130" width="160" height="8" as="geometry" />
        </mxCell>
        <mxCell id="kgnqb2DBGd6a5PuqriNk-178" value="Extends" style="endArrow=block;endSize=16;endFill=0;html=1;rounded=0;exitX=0.5;exitY=0;exitDx=0;exitDy=0;entryX=0.5;entryY=1;entryDx=0;entryDy=0;" parent="1" source="kgnqb2DBGd6a5PuqriNk-172" target="kgnqb2DBGd6a5PuqriNk-156" edge="1">
          <mxGeometry width="160" relative="1" as="geometry">
            <mxPoint x="1670" y="492" as="sourcePoint" />
            <mxPoint x="1670" y="430" as="targetPoint" />
            <mxPoint as="offset" />
          </mxGeometry>
        </mxCell>
        <mxCell id="kgnqb2DBGd6a5PuqriNk-179" value="Extends" style="endArrow=block;endSize=16;endFill=0;html=1;rounded=0;exitX=0.5;exitY=0;exitDx=0;exitDy=0;entryX=0.5;entryY=1;entryDx=0;entryDy=0;" parent="1" source="kgnqb2DBGd6a5PuqriNk-162" target="kgnqb2DBGd6a5PuqriNk-172" edge="1">
          <mxGeometry width="160" relative="1" as="geometry">
            <mxPoint x="1680" y="686" as="sourcePoint" />
            <mxPoint x="1680" y="624" as="targetPoint" />
            <mxPoint as="offset" />
          </mxGeometry>
        </mxCell>
        <mxCell id="kgnqb2DBGd6a5PuqriNk-180" value="Gestion de Tickets" style="swimlane;fontStyle=1;align=center;verticalAlign=top;childLayout=stackLayout;horizontal=1;startSize=26;horizontalStack=0;resizeParent=1;resizeParentMax=0;resizeLast=0;collapsible=1;marginBottom=0;whiteSpace=wrap;html=1;" parent="1" vertex="1">
          <mxGeometry x="2120" y="282" width="160" height="138" as="geometry" />
        </mxCell>
        <mxCell id="kgnqb2DBGd6a5PuqriNk-181" value="&lt;div&gt;titulo&lt;/div&gt;" style="text;strokeColor=none;fillColor=none;align=left;verticalAlign=top;spacingLeft=4;spacingRight=4;overflow=hidden;rotatable=0;points=[[0,0.5],[1,0.5]];portConstraint=eastwest;whiteSpace=wrap;html=1;" parent="kgnqb2DBGd6a5PuqriNk-180" vertex="1">
          <mxGeometry y="26" width="160" height="26" as="geometry" />
        </mxCell>
        <mxCell id="kgnqb2DBGd6a5PuqriNk-183" value="departamentoAsignados" style="text;strokeColor=none;fillColor=none;align=left;verticalAlign=top;spacingLeft=4;spacingRight=4;overflow=hidden;rotatable=0;points=[[0,0.5],[1,0.5]];portConstraint=eastwest;whiteSpace=wrap;html=1;" parent="kgnqb2DBGd6a5PuqriNk-180" vertex="1">
          <mxGeometry y="52" width="160" height="26" as="geometry" />
        </mxCell>
        <mxCell id="kgnqb2DBGd6a5PuqriNk-184" value="nivelPrioridad" style="text;strokeColor=none;fillColor=none;align=left;verticalAlign=top;spacingLeft=4;spacingRight=4;overflow=hidden;rotatable=0;points=[[0,0.5],[1,0.5]];portConstraint=eastwest;whiteSpace=wrap;html=1;" parent="kgnqb2DBGd6a5PuqriNk-180" vertex="1">
          <mxGeometry y="78" width="160" height="26" as="geometry" />
        </mxCell>
        <mxCell id="kgnqb2DBGd6a5PuqriNk-185" value="Adjuntos" style="text;strokeColor=none;fillColor=none;align=left;verticalAlign=top;spacingLeft=4;spacingRight=4;overflow=hidden;rotatable=0;points=[[0,0.5],[1,0.5]];portConstraint=eastwest;whiteSpace=wrap;html=1;" parent="kgnqb2DBGd6a5PuqriNk-180" vertex="1">
          <mxGeometry y="104" width="160" height="26" as="geometry" />
        </mxCell>
        <mxCell id="kgnqb2DBGd6a5PuqriNk-186" value="" style="line;strokeWidth=1;fillColor=none;align=left;verticalAlign=middle;spacingTop=-1;spacingLeft=3;spacingRight=3;rotatable=0;labelPosition=right;points=[];portConstraint=eastwest;strokeColor=inherit;" parent="kgnqb2DBGd6a5PuqriNk-180" vertex="1">
          <mxGeometry y="130" width="160" height="8" as="geometry" />
        </mxCell>
        <mxCell id="kgnqb2DBGd6a5PuqriNk-187" value="Usuario" style="swimlane;fontStyle=1;align=center;verticalAlign=top;childLayout=stackLayout;horizontal=1;startSize=26;horizontalStack=0;resizeParent=1;resizeParentMax=0;resizeLast=0;collapsible=1;marginBottom=0;whiteSpace=wrap;html=1;" parent="1" vertex="1">
          <mxGeometry x="2120" y="656" width="160" height="164" as="geometry" />
        </mxCell>
        <mxCell id="kgnqb2DBGd6a5PuqriNk-188" value="&lt;div&gt;&lt;br&gt;&lt;/div&gt;" style="text;strokeColor=none;fillColor=none;align=left;verticalAlign=top;spacingLeft=4;spacingRight=4;overflow=hidden;rotatable=0;points=[[0,0.5],[1,0.5]];portConstraint=eastwest;whiteSpace=wrap;html=1;" parent="kgnqb2DBGd6a5PuqriNk-187" vertex="1">
          <mxGeometry y="26" width="160" height="26" as="geometry" />
        </mxCell>
        <mxCell id="kgnqb2DBGd6a5PuqriNk-189" value="" style="line;strokeWidth=1;fillColor=none;align=left;verticalAlign=middle;spacingTop=-1;spacingLeft=3;spacingRight=3;rotatable=0;labelPosition=right;points=[];portConstraint=eastwest;strokeColor=inherit;" parent="kgnqb2DBGd6a5PuqriNk-187" vertex="1">
          <mxGeometry y="52" width="160" height="8" as="geometry" />
        </mxCell>
        <mxCell id="kgnqb2DBGd6a5PuqriNk-213" value="+ Registrar()" style="text;strokeColor=none;fillColor=none;align=left;verticalAlign=top;spacingLeft=4;spacingRight=4;overflow=hidden;rotatable=0;points=[[0,0.5],[1,0.5]];portConstraint=eastwest;whiteSpace=wrap;html=1;" parent="kgnqb2DBGd6a5PuqriNk-187" vertex="1">
          <mxGeometry y="60" width="160" height="26" as="geometry" />
        </mxCell>
        <mxCell id="kgnqb2DBGd6a5PuqriNk-214" value="+ Actualizar()" style="text;strokeColor=none;fillColor=none;align=left;verticalAlign=top;spacingLeft=4;spacingRight=4;overflow=hidden;rotatable=0;points=[[0,0.5],[1,0.5]];portConstraint=eastwest;whiteSpace=wrap;html=1;" parent="kgnqb2DBGd6a5PuqriNk-187" vertex="1">
          <mxGeometry y="86" width="160" height="26" as="geometry" />
        </mxCell>
        <mxCell id="kgnqb2DBGd6a5PuqriNk-191" value="+ Asignar()" style="text;strokeColor=none;fillColor=none;align=left;verticalAlign=top;spacingLeft=4;spacingRight=4;overflow=hidden;rotatable=0;points=[[0,0.5],[1,0.5]];portConstraint=eastwest;whiteSpace=wrap;html=1;" parent="kgnqb2DBGd6a5PuqriNk-187" vertex="1">
          <mxGeometry y="112" width="160" height="26" as="geometry" />
        </mxCell>
        <mxCell id="kgnqb2DBGd6a5PuqriNk-216" value="+ Cerrar()" style="text;strokeColor=none;fillColor=none;align=left;verticalAlign=top;spacingLeft=4;spacingRight=4;overflow=hidden;rotatable=0;points=[[0,0.5],[1,0.5]];portConstraint=eastwest;whiteSpace=wrap;html=1;" parent="kgnqb2DBGd6a5PuqriNk-187" vertex="1">
          <mxGeometry y="138" width="160" height="26" as="geometry" />
        </mxCell>
        <mxCell id="kgnqb2DBGd6a5PuqriNk-195" value="Administrador" style="swimlane;fontStyle=1;align=center;verticalAlign=top;childLayout=stackLayout;horizontal=1;startSize=26;horizontalStack=0;resizeParent=1;resizeParentMax=0;resizeLast=0;collapsible=1;marginBottom=0;whiteSpace=wrap;html=1;" parent="1" vertex="1">
          <mxGeometry x="2310" y="667" width="160" height="86" as="geometry" />
        </mxCell>
        <mxCell id="kgnqb2DBGd6a5PuqriNk-196" value="&lt;div&gt;&lt;br&gt;&lt;/div&gt;" style="text;strokeColor=none;fillColor=none;align=left;verticalAlign=top;spacingLeft=4;spacingRight=4;overflow=hidden;rotatable=0;points=[[0,0.5],[1,0.5]];portConstraint=eastwest;whiteSpace=wrap;html=1;" parent="kgnqb2DBGd6a5PuqriNk-195" vertex="1">
          <mxGeometry y="26" width="160" height="26" as="geometry" />
        </mxCell>
        <mxCell id="kgnqb2DBGd6a5PuqriNk-197" value="" style="line;strokeWidth=1;fillColor=none;align=left;verticalAlign=middle;spacingTop=-1;spacingLeft=3;spacingRight=3;rotatable=0;labelPosition=right;points=[];portConstraint=eastwest;strokeColor=inherit;" parent="kgnqb2DBGd6a5PuqriNk-195" vertex="1">
          <mxGeometry y="52" width="160" height="8" as="geometry" />
        </mxCell>
        <mxCell id="kgnqb2DBGd6a5PuqriNk-215" value="+ Modificar()" style="text;strokeColor=none;fillColor=none;align=left;verticalAlign=top;spacingLeft=4;spacingRight=4;overflow=hidden;rotatable=0;points=[[0,0.5],[1,0.5]];portConstraint=eastwest;whiteSpace=wrap;html=1;" parent="kgnqb2DBGd6a5PuqriNk-195" vertex="1">
          <mxGeometry y="60" width="160" height="26" as="geometry" />
        </mxCell>
        <mxCell id="kgnqb2DBGd6a5PuqriNk-200" value="Tecnico" style="swimlane;fontStyle=1;align=center;verticalAlign=top;childLayout=stackLayout;horizontal=1;startSize=26;horizontalStack=0;resizeParent=1;resizeParentMax=0;resizeLast=0;collapsible=1;marginBottom=0;whiteSpace=wrap;html=1;" parent="1" vertex="1">
          <mxGeometry x="1930" y="667" width="160" height="138" as="geometry" />
        </mxCell>
        <mxCell id="kgnqb2DBGd6a5PuqriNk-201" value="&lt;div&gt;&lt;br&gt;&lt;/div&gt;" style="text;strokeColor=none;fillColor=none;align=left;verticalAlign=top;spacingLeft=4;spacingRight=4;overflow=hidden;rotatable=0;points=[[0,0.5],[1,0.5]];portConstraint=eastwest;whiteSpace=wrap;html=1;" parent="kgnqb2DBGd6a5PuqriNk-200" vertex="1">
          <mxGeometry y="26" width="160" height="26" as="geometry" />
        </mxCell>
        <mxCell id="kgnqb2DBGd6a5PuqriNk-202" value="" style="line;strokeWidth=1;fillColor=none;align=left;verticalAlign=middle;spacingTop=-1;spacingLeft=3;spacingRight=3;rotatable=0;labelPosition=right;points=[];portConstraint=eastwest;strokeColor=inherit;" parent="kgnqb2DBGd6a5PuqriNk-200" vertex="1">
          <mxGeometry y="52" width="160" height="8" as="geometry" />
        </mxCell>
        <mxCell id="kgnqb2DBGd6a5PuqriNk-203" value="+ GestionarTickets()" style="text;strokeColor=none;fillColor=none;align=left;verticalAlign=top;spacingLeft=4;spacingRight=4;overflow=hidden;rotatable=0;points=[[0,0.5],[1,0.5]];portConstraint=eastwest;whiteSpace=wrap;html=1;" parent="kgnqb2DBGd6a5PuqriNk-200" vertex="1">
          <mxGeometry y="60" width="160" height="26" as="geometry" />
        </mxCell>
        <mxCell id="kgnqb2DBGd6a5PuqriNk-204" value="+ Asignar()" style="text;strokeColor=none;fillColor=none;align=left;verticalAlign=top;spacingLeft=4;spacingRight=4;overflow=hidden;rotatable=0;points=[[0,0.5],[1,0.5]];portConstraint=eastwest;whiteSpace=wrap;html=1;" parent="kgnqb2DBGd6a5PuqriNk-200" vertex="1">
          <mxGeometry y="86" width="160" height="26" as="geometry" />
        </mxCell>
        <mxCell id="kgnqb2DBGd6a5PuqriNk-205" value="+ Resolver()" style="text;strokeColor=none;fillColor=none;align=left;verticalAlign=top;spacingLeft=4;spacingRight=4;overflow=hidden;rotatable=0;points=[[0,0.5],[1,0.5]];portConstraint=eastwest;whiteSpace=wrap;html=1;" parent="kgnqb2DBGd6a5PuqriNk-200" vertex="1">
          <mxGeometry y="112" width="160" height="26" as="geometry" />
        </mxCell>
        <mxCell id="kgnqb2DBGd6a5PuqriNk-206" value="Persona Tickets" style="swimlane;fontStyle=1;align=center;verticalAlign=top;childLayout=stackLayout;horizontal=1;startSize=26;horizontalStack=0;resizeParent=1;resizeParentMax=0;resizeLast=0;collapsible=1;marginBottom=0;whiteSpace=wrap;html=1;" parent="1" vertex="1">
          <mxGeometry x="2120" y="536" width="160" height="86" as="geometry" />
        </mxCell>
        <mxCell id="kgnqb2DBGd6a5PuqriNk-207" value="nombre&lt;div&gt;&lt;br&gt;&lt;/div&gt;" style="text;strokeColor=none;fillColor=none;align=left;verticalAlign=top;spacingLeft=4;spacingRight=4;overflow=hidden;rotatable=0;points=[[0,0.5],[1,0.5]];portConstraint=eastwest;whiteSpace=wrap;html=1;" parent="kgnqb2DBGd6a5PuqriNk-206" vertex="1">
          <mxGeometry y="26" width="160" height="26" as="geometry" />
        </mxCell>
        <mxCell id="kgnqb2DBGd6a5PuqriNk-208" value="&lt;div&gt;Identificador&amp;nbsp;&lt;/div&gt;" style="text;strokeColor=none;fillColor=none;align=left;verticalAlign=top;spacingLeft=4;spacingRight=4;overflow=hidden;rotatable=0;points=[[0,0.5],[1,0.5]];portConstraint=eastwest;whiteSpace=wrap;html=1;" parent="kgnqb2DBGd6a5PuqriNk-206" vertex="1">
          <mxGeometry y="52" width="160" height="26" as="geometry" />
        </mxCell>
        <mxCell id="kgnqb2DBGd6a5PuqriNk-209" value="" style="line;strokeWidth=1;fillColor=none;align=left;verticalAlign=middle;spacingTop=-1;spacingLeft=3;spacingRight=3;rotatable=0;labelPosition=right;points=[];portConstraint=eastwest;strokeColor=inherit;" parent="kgnqb2DBGd6a5PuqriNk-206" vertex="1">
          <mxGeometry y="78" width="160" height="8" as="geometry" />
        </mxCell>
        <mxCell id="kgnqb2DBGd6a5PuqriNk-210" value="Extends" style="endArrow=block;endSize=16;endFill=0;html=1;rounded=0;entryX=0.5;entryY=1;entryDx=0;entryDy=0;exitX=0.5;exitY=0;exitDx=0;exitDy=0;" parent="1" source="kgnqb2DBGd6a5PuqriNk-187" target="kgnqb2DBGd6a5PuqriNk-206" edge="1">
          <mxGeometry width="160" relative="1" as="geometry">
            <mxPoint x="2040" y="587" as="sourcePoint" />
            <mxPoint x="2040" y="507" as="targetPoint" />
          </mxGeometry>
        </mxCell>
        <mxCell id="kgnqb2DBGd6a5PuqriNk-211" value="Extends" style="endArrow=block;endSize=16;endFill=0;html=1;rounded=0;entryX=1;entryY=0.5;entryDx=0;entryDy=0;exitX=0.5;exitY=0;exitDx=0;exitDy=0;" parent="1" source="kgnqb2DBGd6a5PuqriNk-195" target="kgnqb2DBGd6a5PuqriNk-207" edge="1">
          <mxGeometry width="160" relative="1" as="geometry">
            <mxPoint x="2370" y="627" as="sourcePoint" />
            <mxPoint x="2370" y="547" as="targetPoint" />
          </mxGeometry>
        </mxCell>
        <mxCell id="kgnqb2DBGd6a5PuqriNk-212" value="Extends" style="endArrow=block;endSize=16;endFill=0;html=1;rounded=0;entryX=0;entryY=0.5;entryDx=0;entryDy=0;exitX=0.5;exitY=0;exitDx=0;exitDy=0;" parent="1" source="kgnqb2DBGd6a5PuqriNk-200" target="kgnqb2DBGd6a5PuqriNk-207" edge="1">
          <mxGeometry width="160" relative="1" as="geometry">
            <mxPoint x="2000" y="647" as="sourcePoint" />
            <mxPoint x="2000" y="567" as="targetPoint" />
          </mxGeometry>
        </mxCell>
        <mxCell id="kgnqb2DBGd6a5PuqriNk-217" value="Extends" style="endArrow=block;endSize=16;endFill=0;html=1;rounded=0;entryX=0.5;entryY=1;entryDx=0;entryDy=0;exitX=0.5;exitY=0;exitDx=0;exitDy=0;" parent="1" source="kgnqb2DBGd6a5PuqriNk-206" target="kgnqb2DBGd6a5PuqriNk-180" edge="1">
          <mxGeometry width="160" relative="1" as="geometry">
            <mxPoint x="2270" y="538" as="sourcePoint" />
            <mxPoint x="2160" y="446" as="targetPoint" />
          </mxGeometry>
        </mxCell>
        <mxCell id="kgnqb2DBGd6a5PuqriNk-218" value="Lista de Solicitudes" style="swimlane;fontStyle=1;align=center;verticalAlign=top;childLayout=stackLayout;horizontal=1;startSize=26;horizontalStack=0;resizeParent=1;resizeParentMax=0;resizeLast=0;collapsible=1;marginBottom=0;whiteSpace=wrap;html=1;" parent="1" vertex="1">
          <mxGeometry x="2730" y="282" width="160" height="60" as="geometry" />
        </mxCell>
        <mxCell id="kgnqb2DBGd6a5PuqriNk-219" value="solicitudes&amp;nbsp;" style="text;strokeColor=none;fillColor=none;align=left;verticalAlign=top;spacingLeft=4;spacingRight=4;overflow=hidden;rotatable=0;points=[[0,0.5],[1,0.5]];portConstraint=eastwest;whiteSpace=wrap;html=1;" parent="kgnqb2DBGd6a5PuqriNk-218" vertex="1">
          <mxGeometry y="26" width="160" height="26" as="geometry" />
        </mxCell>
        <mxCell id="kgnqb2DBGd6a5PuqriNk-224" value="" style="line;strokeWidth=1;fillColor=none;align=left;verticalAlign=middle;spacingTop=-1;spacingLeft=3;spacingRight=3;rotatable=0;labelPosition=right;points=[];portConstraint=eastwest;strokeColor=inherit;" parent="kgnqb2DBGd6a5PuqriNk-218" vertex="1">
          <mxGeometry y="52" width="160" height="8" as="geometry" />
        </mxCell>
        <mxCell id="kgnqb2DBGd6a5PuqriNk-225" value="Usuario" style="swimlane;fontStyle=1;align=center;verticalAlign=top;childLayout=stackLayout;horizontal=1;startSize=26;horizontalStack=0;resizeParent=1;resizeParentMax=0;resizeLast=0;collapsible=1;marginBottom=0;whiteSpace=wrap;html=1;" parent="1" vertex="1">
          <mxGeometry x="2730" y="1050" width="160" height="138" as="geometry" />
        </mxCell>
        <mxCell id="kgnqb2DBGd6a5PuqriNk-226" value="&lt;div&gt;&lt;br&gt;&lt;/div&gt;" style="text;strokeColor=none;fillColor=none;align=left;verticalAlign=top;spacingLeft=4;spacingRight=4;overflow=hidden;rotatable=0;points=[[0,0.5],[1,0.5]];portConstraint=eastwest;whiteSpace=wrap;html=1;" parent="kgnqb2DBGd6a5PuqriNk-225" vertex="1">
          <mxGeometry y="26" width="160" height="26" as="geometry" />
        </mxCell>
        <mxCell id="kgnqb2DBGd6a5PuqriNk-227" value="" style="line;strokeWidth=1;fillColor=none;align=left;verticalAlign=middle;spacingTop=-1;spacingLeft=3;spacingRight=3;rotatable=0;labelPosition=right;points=[];portConstraint=eastwest;strokeColor=inherit;" parent="kgnqb2DBGd6a5PuqriNk-225" vertex="1">
          <mxGeometry y="52" width="160" height="8" as="geometry" />
        </mxCell>
        <mxCell id="kgnqb2DBGd6a5PuqriNk-228" value="+ VerTicketsCreados()" style="text;strokeColor=none;fillColor=none;align=left;verticalAlign=top;spacingLeft=4;spacingRight=4;overflow=hidden;rotatable=0;points=[[0,0.5],[1,0.5]];portConstraint=eastwest;whiteSpace=wrap;html=1;" parent="kgnqb2DBGd6a5PuqriNk-225" vertex="1">
          <mxGeometry y="60" width="160" height="26" as="geometry" />
        </mxCell>
        <mxCell id="kgnqb2DBGd6a5PuqriNk-229" value="+ FiltrarPorEstado()" style="text;strokeColor=none;fillColor=none;align=left;verticalAlign=top;spacingLeft=4;spacingRight=4;overflow=hidden;rotatable=0;points=[[0,0.5],[1,0.5]];portConstraint=eastwest;whiteSpace=wrap;html=1;" parent="kgnqb2DBGd6a5PuqriNk-225" vertex="1">
          <mxGeometry y="86" width="160" height="26" as="geometry" />
        </mxCell>
        <mxCell id="kgnqb2DBGd6a5PuqriNk-230" value="+ ConsultatDetalles()" style="text;strokeColor=none;fillColor=none;align=left;verticalAlign=top;spacingLeft=4;spacingRight=4;overflow=hidden;rotatable=0;points=[[0,0.5],[1,0.5]];portConstraint=eastwest;whiteSpace=wrap;html=1;" parent="kgnqb2DBGd6a5PuqriNk-225" vertex="1">
          <mxGeometry y="112" width="160" height="26" as="geometry" />
        </mxCell>
        <mxCell id="kgnqb2DBGd6a5PuqriNk-232" value="Administrador" style="swimlane;fontStyle=1;align=center;verticalAlign=top;childLayout=stackLayout;horizontal=1;startSize=26;horizontalStack=0;resizeParent=1;resizeParentMax=0;resizeLast=0;collapsible=1;marginBottom=0;whiteSpace=wrap;html=1;" parent="1" vertex="1">
          <mxGeometry x="2920" y="920" width="160" height="164" as="geometry" />
        </mxCell>
        <mxCell id="kgnqb2DBGd6a5PuqriNk-233" value="&lt;div&gt;&lt;br&gt;&lt;/div&gt;" style="text;strokeColor=none;fillColor=none;align=left;verticalAlign=top;spacingLeft=4;spacingRight=4;overflow=hidden;rotatable=0;points=[[0,0.5],[1,0.5]];portConstraint=eastwest;whiteSpace=wrap;html=1;" parent="kgnqb2DBGd6a5PuqriNk-232" vertex="1">
          <mxGeometry y="26" width="160" height="26" as="geometry" />
        </mxCell>
        <mxCell id="kgnqb2DBGd6a5PuqriNk-234" value="" style="line;strokeWidth=1;fillColor=none;align=left;verticalAlign=middle;spacingTop=-1;spacingLeft=3;spacingRight=3;rotatable=0;labelPosition=right;points=[];portConstraint=eastwest;strokeColor=inherit;" parent="kgnqb2DBGd6a5PuqriNk-232" vertex="1">
          <mxGeometry y="52" width="160" height="8" as="geometry" />
        </mxCell>
        <mxCell id="kgnqb2DBGd6a5PuqriNk-235" value="+ RevisarTodosLosTickets()" style="text;strokeColor=none;fillColor=none;align=left;verticalAlign=top;spacingLeft=4;spacingRight=4;overflow=hidden;rotatable=0;points=[[0,0.5],[1,0.5]];portConstraint=eastwest;whiteSpace=wrap;html=1;" parent="kgnqb2DBGd6a5PuqriNk-232" vertex="1">
          <mxGeometry y="60" width="160" height="26" as="geometry" />
        </mxCell>
        <mxCell id="kgnqb2DBGd6a5PuqriNk-251" value="+ Reasignar()" style="text;strokeColor=none;fillColor=none;align=left;verticalAlign=top;spacingLeft=4;spacingRight=4;overflow=hidden;rotatable=0;points=[[0,0.5],[1,0.5]];portConstraint=eastwest;whiteSpace=wrap;html=1;" parent="kgnqb2DBGd6a5PuqriNk-232" vertex="1">
          <mxGeometry y="86" width="160" height="26" as="geometry" />
        </mxCell>
        <mxCell id="kgnqb2DBGd6a5PuqriNk-252" value="+ ModificarEstado()" style="text;strokeColor=none;fillColor=none;align=left;verticalAlign=top;spacingLeft=4;spacingRight=4;overflow=hidden;rotatable=0;points=[[0,0.5],[1,0.5]];portConstraint=eastwest;whiteSpace=wrap;html=1;" parent="kgnqb2DBGd6a5PuqriNk-232" vertex="1">
          <mxGeometry y="112" width="160" height="26" as="geometry" />
        </mxCell>
        <mxCell id="kgnqb2DBGd6a5PuqriNk-253" value="+ AccesoPrivado()" style="text;strokeColor=none;fillColor=none;align=left;verticalAlign=top;spacingLeft=4;spacingRight=4;overflow=hidden;rotatable=0;points=[[0,0.5],[1,0.5]];portConstraint=eastwest;whiteSpace=wrap;html=1;" parent="kgnqb2DBGd6a5PuqriNk-232" vertex="1">
          <mxGeometry y="138" width="160" height="26" as="geometry" />
        </mxCell>
        <mxCell id="kgnqb2DBGd6a5PuqriNk-236" value="Tecnico" style="swimlane;fontStyle=1;align=center;verticalAlign=top;childLayout=stackLayout;horizontal=1;startSize=26;horizontalStack=0;resizeParent=1;resizeParentMax=0;resizeLast=0;collapsible=1;marginBottom=0;whiteSpace=wrap;html=1;" parent="1" vertex="1">
          <mxGeometry x="2540" y="920" width="160" height="164" as="geometry" />
        </mxCell>
        <mxCell id="kgnqb2DBGd6a5PuqriNk-237" value="&lt;div&gt;&lt;br&gt;&lt;/div&gt;" style="text;strokeColor=none;fillColor=none;align=left;verticalAlign=top;spacingLeft=4;spacingRight=4;overflow=hidden;rotatable=0;points=[[0,0.5],[1,0.5]];portConstraint=eastwest;whiteSpace=wrap;html=1;" parent="kgnqb2DBGd6a5PuqriNk-236" vertex="1">
          <mxGeometry y="26" width="160" height="26" as="geometry" />
        </mxCell>
        <mxCell id="kgnqb2DBGd6a5PuqriNk-238" value="" style="line;strokeWidth=1;fillColor=none;align=left;verticalAlign=middle;spacingTop=-1;spacingLeft=3;spacingRight=3;rotatable=0;labelPosition=right;points=[];portConstraint=eastwest;strokeColor=inherit;" parent="kgnqb2DBGd6a5PuqriNk-236" vertex="1">
          <mxGeometry y="52" width="160" height="8" as="geometry" />
        </mxCell>
        <mxCell id="kgnqb2DBGd6a5PuqriNk-239" value="+ TicketsAsignados()" style="text;strokeColor=none;fillColor=none;align=left;verticalAlign=top;spacingLeft=4;spacingRight=4;overflow=hidden;rotatable=0;points=[[0,0.5],[1,0.5]];portConstraint=eastwest;whiteSpace=wrap;html=1;" parent="kgnqb2DBGd6a5PuqriNk-236" vertex="1">
          <mxGeometry y="60" width="160" height="26" as="geometry" />
        </mxCell>
        <mxCell id="kgnqb2DBGd6a5PuqriNk-250" value="+ FiltrarPorPrioriadad()" style="text;strokeColor=none;fillColor=none;align=left;verticalAlign=top;spacingLeft=4;spacingRight=4;overflow=hidden;rotatable=0;points=[[0,0.5],[1,0.5]];portConstraint=eastwest;whiteSpace=wrap;html=1;" parent="kgnqb2DBGd6a5PuqriNk-236" vertex="1">
          <mxGeometry y="86" width="160" height="26" as="geometry" />
        </mxCell>
        <mxCell id="kgnqb2DBGd6a5PuqriNk-240" value="+ CambiarEstado()" style="text;strokeColor=none;fillColor=none;align=left;verticalAlign=top;spacingLeft=4;spacingRight=4;overflow=hidden;rotatable=0;points=[[0,0.5],[1,0.5]];portConstraint=eastwest;whiteSpace=wrap;html=1;" parent="kgnqb2DBGd6a5PuqriNk-236" vertex="1">
          <mxGeometry y="112" width="160" height="26" as="geometry" />
        </mxCell>
        <mxCell id="kgnqb2DBGd6a5PuqriNk-241" value="+ AgregarNota()" style="text;strokeColor=none;fillColor=none;align=left;verticalAlign=top;spacingLeft=4;spacingRight=4;overflow=hidden;rotatable=0;points=[[0,0.5],[1,0.5]];portConstraint=eastwest;whiteSpace=wrap;html=1;" parent="kgnqb2DBGd6a5PuqriNk-236" vertex="1">
          <mxGeometry y="138" width="160" height="26" as="geometry" />
        </mxCell>
        <mxCell id="kgnqb2DBGd6a5PuqriNk-242" value="Persona Lista" style="swimlane;fontStyle=1;align=center;verticalAlign=top;childLayout=stackLayout;horizontal=1;startSize=26;horizontalStack=0;resizeParent=1;resizeParentMax=0;resizeLast=0;collapsible=1;marginBottom=0;whiteSpace=wrap;html=1;" parent="1" vertex="1">
          <mxGeometry x="2730" y="820" width="160" height="164" as="geometry" />
        </mxCell>
        <mxCell id="kgnqb2DBGd6a5PuqriNk-243" value="nombre&lt;div&gt;&lt;br&gt;&lt;/div&gt;" style="text;strokeColor=none;fillColor=none;align=left;verticalAlign=top;spacingLeft=4;spacingRight=4;overflow=hidden;rotatable=0;points=[[0,0.5],[1,0.5]];portConstraint=eastwest;whiteSpace=wrap;html=1;" parent="kgnqb2DBGd6a5PuqriNk-242" vertex="1">
          <mxGeometry y="26" width="160" height="26" as="geometry" />
        </mxCell>
        <mxCell id="kgnqb2DBGd6a5PuqriNk-244" value="&lt;div&gt;Identificador&amp;nbsp;&lt;/div&gt;" style="text;strokeColor=none;fillColor=none;align=left;verticalAlign=top;spacingLeft=4;spacingRight=4;overflow=hidden;rotatable=0;points=[[0,0.5],[1,0.5]];portConstraint=eastwest;whiteSpace=wrap;html=1;" parent="kgnqb2DBGd6a5PuqriNk-242" vertex="1">
          <mxGeometry y="52" width="160" height="26" as="geometry" />
        </mxCell>
        <mxCell id="kgnqb2DBGd6a5PuqriNk-245" value="" style="line;strokeWidth=1;fillColor=none;align=left;verticalAlign=middle;spacingTop=-1;spacingLeft=3;spacingRight=3;rotatable=0;labelPosition=right;points=[];portConstraint=eastwest;strokeColor=inherit;" parent="kgnqb2DBGd6a5PuqriNk-242" vertex="1">
          <mxGeometry y="78" width="160" height="8" as="geometry" />
        </mxCell>
        <mxCell id="MD6l4VZ1lRJNJTrKG-ep-495" value="+ CambiarEstado()" style="text;strokeColor=none;fillColor=none;align=left;verticalAlign=top;spacingLeft=4;spacingRight=4;overflow=hidden;rotatable=0;points=[[0,0.5],[1,0.5]];portConstraint=eastwest;whiteSpace=wrap;html=1;" vertex="1" parent="kgnqb2DBGd6a5PuqriNk-242">
          <mxGeometry y="86" width="160" height="26" as="geometry" />
        </mxCell>
        <mxCell id="MD6l4VZ1lRJNJTrKG-ep-499" value="+ AgregarNota()" style="text;strokeColor=none;fillColor=none;align=left;verticalAlign=top;spacingLeft=4;spacingRight=4;overflow=hidden;rotatable=0;points=[[0,0.5],[1,0.5]];portConstraint=eastwest;whiteSpace=wrap;html=1;" vertex="1" parent="kgnqb2DBGd6a5PuqriNk-242">
          <mxGeometry y="112" width="160" height="26" as="geometry" />
        </mxCell>
        <mxCell id="MD6l4VZ1lRJNJTrKG-ep-496" value="+ Comentar()" style="text;strokeColor=none;fillColor=none;align=left;verticalAlign=top;spacingLeft=4;spacingRight=4;overflow=hidden;rotatable=0;points=[[0,0.5],[1,0.5]];portConstraint=eastwest;whiteSpace=wrap;html=1;" vertex="1" parent="kgnqb2DBGd6a5PuqriNk-242">
          <mxGeometry y="138" width="160" height="26" as="geometry" />
        </mxCell>
        <mxCell id="kgnqb2DBGd6a5PuqriNk-246" value="Extends" style="endArrow=block;endSize=16;endFill=0;html=1;rounded=0;entryX=0.5;entryY=1;entryDx=0;entryDy=0;exitX=0.5;exitY=0;exitDx=0;exitDy=0;" parent="1" source="kgnqb2DBGd6a5PuqriNk-225" target="kgnqb2DBGd6a5PuqriNk-242" edge="1">
          <mxGeometry width="160" relative="1" as="geometry">
            <mxPoint x="2650" y="840" as="sourcePoint" />
            <mxPoint x="2650" y="760" as="targetPoint" />
          </mxGeometry>
        </mxCell>
        <mxCell id="kgnqb2DBGd6a5PuqriNk-247" value="Extends" style="endArrow=block;endSize=16;endFill=0;html=1;rounded=0;entryX=1;entryY=0.5;entryDx=0;entryDy=0;exitX=0.5;exitY=0;exitDx=0;exitDy=0;" parent="1" source="kgnqb2DBGd6a5PuqriNk-232" target="kgnqb2DBGd6a5PuqriNk-243" edge="1">
          <mxGeometry width="160" relative="1" as="geometry">
            <mxPoint x="2980" y="880" as="sourcePoint" />
            <mxPoint x="2980" y="800" as="targetPoint" />
          </mxGeometry>
        </mxCell>
        <mxCell id="kgnqb2DBGd6a5PuqriNk-248" value="Extends" style="endArrow=block;endSize=16;endFill=0;html=1;rounded=0;entryX=0;entryY=0.5;entryDx=0;entryDy=0;exitX=0.5;exitY=0;exitDx=0;exitDy=0;" parent="1" source="kgnqb2DBGd6a5PuqriNk-236" target="kgnqb2DBGd6a5PuqriNk-243" edge="1">
          <mxGeometry width="160" relative="1" as="geometry">
            <mxPoint x="2610" y="900" as="sourcePoint" />
            <mxPoint x="2610" y="820" as="targetPoint" />
          </mxGeometry>
        </mxCell>
        <mxCell id="kgnqb2DBGd6a5PuqriNk-291" value="Nota Ticket" style="swimlane;fontStyle=1;align=center;verticalAlign=top;childLayout=stackLayout;horizontal=1;startSize=26;horizontalStack=0;resizeParent=1;resizeParentMax=0;resizeLast=0;collapsible=1;marginBottom=0;whiteSpace=wrap;html=1;" parent="1" vertex="1">
          <mxGeometry x="2590" y="555" width="160" height="112" as="geometry" />
        </mxCell>
        <mxCell id="kgnqb2DBGd6a5PuqriNk-292" value="numeroNota" style="text;strokeColor=none;fillColor=none;align=left;verticalAlign=top;spacingLeft=4;spacingRight=4;overflow=hidden;rotatable=0;points=[[0,0.5],[1,0.5]];portConstraint=eastwest;whiteSpace=wrap;html=1;" parent="kgnqb2DBGd6a5PuqriNk-291" vertex="1">
          <mxGeometry y="26" width="160" height="26" as="geometry" />
        </mxCell>
        <mxCell id="kgnqb2DBGd6a5PuqriNk-322" value="contenidoNota&lt;div&gt;&lt;br&gt;&lt;/div&gt;" style="text;strokeColor=none;fillColor=none;align=left;verticalAlign=top;spacingLeft=4;spacingRight=4;overflow=hidden;rotatable=0;points=[[0,0.5],[1,0.5]];portConstraint=eastwest;whiteSpace=wrap;html=1;" parent="kgnqb2DBGd6a5PuqriNk-291" vertex="1">
          <mxGeometry y="52" width="160" height="26" as="geometry" />
        </mxCell>
        <mxCell id="kgnqb2DBGd6a5PuqriNk-323" value="&lt;div&gt;Adjuntos&lt;/div&gt;" style="text;strokeColor=none;fillColor=none;align=left;verticalAlign=top;spacingLeft=4;spacingRight=4;overflow=hidden;rotatable=0;points=[[0,0.5],[1,0.5]];portConstraint=eastwest;whiteSpace=wrap;html=1;" parent="kgnqb2DBGd6a5PuqriNk-291" vertex="1">
          <mxGeometry y="78" width="160" height="26" as="geometry" />
        </mxCell>
        <mxCell id="kgnqb2DBGd6a5PuqriNk-293" value="" style="line;strokeWidth=1;fillColor=none;align=left;verticalAlign=middle;spacingTop=-1;spacingLeft=3;spacingRight=3;rotatable=0;labelPosition=right;points=[];portConstraint=eastwest;strokeColor=inherit;" parent="kgnqb2DBGd6a5PuqriNk-291" vertex="1">
          <mxGeometry y="104" width="160" height="8" as="geometry" />
        </mxCell>
        <mxCell id="b82HxdI6o8lPQma6uKzg-1" value="Sistema Ticket" style="swimlane;fontStyle=1;align=center;verticalAlign=top;childLayout=stackLayout;horizontal=1;startSize=26;horizontalStack=0;resizeParent=1;resizeParentMax=0;resizeLast=0;collapsible=1;marginBottom=0;whiteSpace=wrap;html=1;" parent="1" vertex="1">
          <mxGeometry x="2160" y="20" width="160" height="60" as="geometry" />
        </mxCell>
        <mxCell id="kgnqb2DBGd6a5PuqriNk-182" value="descripccion" style="text;strokeColor=none;fillColor=none;align=left;verticalAlign=top;spacingLeft=4;spacingRight=4;overflow=hidden;rotatable=0;points=[[0,0.5],[1,0.5]];portConstraint=eastwest;whiteSpace=wrap;html=1;" parent="b82HxdI6o8lPQma6uKzg-1" vertex="1">
          <mxGeometry y="26" width="160" height="26" as="geometry" />
        </mxCell>
        <mxCell id="b82HxdI6o8lPQma6uKzg-3" value="" style="line;strokeWidth=1;fillColor=none;align=left;verticalAlign=middle;spacingTop=-1;spacingLeft=3;spacingRight=3;rotatable=0;labelPosition=right;points=[];portConstraint=eastwest;strokeColor=inherit;" parent="b82HxdI6o8lPQma6uKzg-1" vertex="1">
          <mxGeometry y="52" width="160" height="8" as="geometry" />
        </mxCell>
        <mxCell id="b82HxdI6o8lPQma6uKzg-6" value="Extends" style="endArrow=block;endSize=16;endFill=0;html=1;rounded=0;entryX=0;entryY=0.5;entryDx=0;entryDy=0;exitX=0.5;exitY=0;exitDx=0;exitDy=0;" parent="1" source="kgnqb2DBGd6a5PuqriNk-43" edge="1">
          <mxGeometry width="160" relative="1" as="geometry">
            <mxPoint x="980" y="230" as="sourcePoint" />
            <mxPoint x="2160" y="67" as="targetPoint" />
          </mxGeometry>
        </mxCell>
        <mxCell id="b82HxdI6o8lPQma6uKzg-7" value="Extends" style="endArrow=block;endSize=16;endFill=0;html=1;rounded=0;entryX=0;entryY=0.5;entryDx=0;entryDy=0;exitX=0.5;exitY=0;exitDx=0;exitDy=0;" parent="1" source="kgnqb2DBGd6a5PuqriNk-26" target="b82HxdI6o8lPQma6uKzg-1" edge="1">
          <mxGeometry width="160" relative="1" as="geometry">
            <mxPoint x="1530" y="79.38" as="sourcePoint" />
            <mxPoint x="1690" y="79.38" as="targetPoint" />
          </mxGeometry>
        </mxCell>
        <mxCell id="b82HxdI6o8lPQma6uKzg-8" value="Extends" style="endArrow=block;endSize=16;endFill=0;html=1;rounded=0;entryX=-0.013;entryY=0.497;entryDx=0;entryDy=0;entryPerimeter=0;exitX=0.5;exitY=0;exitDx=0;exitDy=0;" parent="1" source="kgnqb2DBGd6a5PuqriNk-138" edge="1">
          <mxGeometry width="160" relative="1" as="geometry">
            <mxPoint x="1630" y="240" as="sourcePoint" />
            <mxPoint x="2157.92" y="66.92200000000003" as="targetPoint" />
          </mxGeometry>
        </mxCell>
        <mxCell id="b82HxdI6o8lPQma6uKzg-9" value="Extends" style="endArrow=block;endSize=16;endFill=0;html=1;rounded=0;entryX=0;entryY=0.5;entryDx=0;entryDy=0;exitX=0.5;exitY=0;exitDx=0;exitDy=0;" parent="1" source="kgnqb2DBGd6a5PuqriNk-118" edge="1">
          <mxGeometry width="160" relative="1" as="geometry">
            <mxPoint x="1640" y="190" as="sourcePoint" />
            <mxPoint x="2160" y="67" as="targetPoint" />
          </mxGeometry>
        </mxCell>
        <mxCell id="b82HxdI6o8lPQma6uKzg-10" value="Extends" style="endArrow=block;endSize=16;endFill=0;html=1;rounded=0;exitX=0.5;exitY=0;exitDx=0;exitDy=0;entryX=0.434;entryY=1.023;entryDx=0;entryDy=0;entryPerimeter=0;" parent="1" source="kgnqb2DBGd6a5PuqriNk-180" edge="1">
          <mxGeometry width="160" relative="1" as="geometry">
            <mxPoint x="1988" y="170" as="sourcePoint" />
            <mxPoint x="2229.44" y="80.59800000000007" as="targetPoint" />
          </mxGeometry>
        </mxCell>
        <mxCell id="b82HxdI6o8lPQma6uKzg-11" value="Extends" style="endArrow=block;endSize=16;endFill=0;html=1;rounded=0;exitX=0.5;exitY=0;exitDx=0;exitDy=0;" parent="1" source="kgnqb2DBGd6a5PuqriNk-156" edge="1">
          <mxGeometry width="160" relative="1" as="geometry">
            <mxPoint x="1840" y="180" as="sourcePoint" />
            <mxPoint x="2211.924882629108" y="80" as="targetPoint" />
          </mxGeometry>
        </mxCell>
        <mxCell id="b82HxdI6o8lPQma6uKzg-13" value="Extends" style="endArrow=block;endSize=16;endFill=0;html=1;rounded=0;exitX=0.5;exitY=0;exitDx=0;exitDy=0;entryX=0.619;entryY=1.035;entryDx=0;entryDy=0;entryPerimeter=0;" parent="1" source="kgnqb2DBGd6a5PuqriNk-218" edge="1">
          <mxGeometry width="160" relative="1" as="geometry">
            <mxPoint x="2580" y="110" as="sourcePoint" />
            <mxPoint x="2259.0400000000004" y="80.90999999999997" as="targetPoint" />
          </mxGeometry>
        </mxCell>
        <mxCell id="MD6l4VZ1lRJNJTrKG-ep-241" value="&lt;div&gt;&lt;br&gt;&lt;/div&gt;&lt;div&gt;&lt;br&gt;&lt;/div&gt;&lt;div&gt;&lt;br&gt;&lt;/div&gt;&lt;div&gt;&lt;br&gt;&lt;/div&gt;&lt;div&gt;&lt;br&gt;&lt;/div&gt;&lt;div&gt;&lt;br&gt;&lt;/div&gt;&lt;div&gt;&lt;br&gt;&lt;/div&gt;&lt;div&gt;&lt;br&gt;&lt;/div&gt;&lt;div&gt;&lt;br&gt;&lt;/div&gt;&lt;div&gt;&lt;br&gt;&lt;/div&gt;&lt;div&gt;&lt;br&gt;&lt;/div&gt;&lt;div&gt;&lt;br&gt;&lt;/div&gt;&lt;div&gt;&lt;br&gt;&lt;/div&gt;Gestion de Roles&amp;nbsp;" style="html=1;whiteSpace=wrap;" vertex="1" parent="1">
          <mxGeometry x="634" y="1630" width="170" height="210" as="geometry" />
        </mxCell>
        <mxCell id="MD6l4VZ1lRJNJTrKG-ep-242" value="Administrador&amp;nbsp;" style="shape=umlActor;verticalLabelPosition=bottom;verticalAlign=top;html=1;outlineConnect=0;" vertex="1" parent="1">
          <mxGeometry x="160" y="1700" width="30" height="60" as="geometry" />
        </mxCell>
        <mxCell id="MD6l4VZ1lRJNJTrKG-ep-243" value="&lt;div&gt;&lt;br&gt;&lt;/div&gt;&lt;div&gt;&lt;br&gt;&lt;/div&gt;&lt;div&gt;&lt;br&gt;&lt;/div&gt;&lt;div&gt;&lt;br&gt;&lt;/div&gt;&lt;div&gt;&lt;br&gt;&lt;/div&gt;&lt;div&gt;&lt;br&gt;&lt;/div&gt;&lt;div&gt;&lt;br&gt;&lt;/div&gt;&lt;div&gt;&lt;br&gt;&lt;/div&gt;&lt;div&gt;&lt;br&gt;&lt;/div&gt;&lt;div&gt;&lt;br&gt;&lt;/div&gt;&lt;div&gt;&lt;br&gt;&lt;/div&gt;&lt;div&gt;&lt;br&gt;&lt;/div&gt;&lt;div&gt;&lt;br&gt;&lt;/div&gt;Parametros del Sistema" style="html=1;whiteSpace=wrap;" vertex="1" parent="1">
          <mxGeometry x="270" y="1630" width="170" height="210" as="geometry" />
        </mxCell>
        <mxCell id="MD6l4VZ1lRJNJTrKG-ep-244" value="Establecer Parametros" style="ellipse;whiteSpace=wrap;html=1;" vertex="1" parent="1">
          <mxGeometry x="290" y="1640" width="130" height="50" as="geometry" />
        </mxCell>
        <mxCell id="MD6l4VZ1lRJNJTrKG-ep-245" value="Modificar Parametros" style="ellipse;whiteSpace=wrap;html=1;" vertex="1" parent="1">
          <mxGeometry x="294" y="1700" width="130" height="50" as="geometry" />
        </mxCell>
        <mxCell id="MD6l4VZ1lRJNJTrKG-ep-246" value="Modificar Parametros previos" style="ellipse;whiteSpace=wrap;html=1;" vertex="1" parent="1">
          <mxGeometry x="290" y="1760" width="130" height="50" as="geometry" />
        </mxCell>
        <mxCell id="MD6l4VZ1lRJNJTrKG-ep-247" value="" style="endArrow=none;html=1;rounded=0;exitX=1;exitY=0.3333333333333333;exitDx=0;exitDy=0;exitPerimeter=0;entryX=0;entryY=0.5;entryDx=0;entryDy=0;" edge="1" source="MD6l4VZ1lRJNJTrKG-ep-242" target="MD6l4VZ1lRJNJTrKG-ep-244" parent="1">
          <mxGeometry width="50" height="50" relative="1" as="geometry">
            <mxPoint x="190" y="1730" as="sourcePoint" />
            <mxPoint x="240" y="1680" as="targetPoint" />
          </mxGeometry>
        </mxCell>
        <mxCell id="MD6l4VZ1lRJNJTrKG-ep-248" value="" style="endArrow=none;html=1;rounded=0;exitX=1;exitY=0.3333333333333333;exitDx=0;exitDy=0;exitPerimeter=0;entryX=0;entryY=0.5;entryDx=0;entryDy=0;" edge="1" source="MD6l4VZ1lRJNJTrKG-ep-242" target="MD6l4VZ1lRJNJTrKG-ep-245" parent="1">
          <mxGeometry width="50" height="50" relative="1" as="geometry">
            <mxPoint x="200" y="1730" as="sourcePoint" />
            <mxPoint x="300" y="1675" as="targetPoint" />
          </mxGeometry>
        </mxCell>
        <mxCell id="MD6l4VZ1lRJNJTrKG-ep-249" value="" style="endArrow=none;html=1;rounded=0;exitX=1;exitY=0.3333333333333333;exitDx=0;exitDy=0;exitPerimeter=0;entryX=0;entryY=0.5;entryDx=0;entryDy=0;" edge="1" source="MD6l4VZ1lRJNJTrKG-ep-242" target="MD6l4VZ1lRJNJTrKG-ep-246" parent="1">
          <mxGeometry width="50" height="50" relative="1" as="geometry">
            <mxPoint x="200" y="1730" as="sourcePoint" />
            <mxPoint x="304" y="1735" as="targetPoint" />
          </mxGeometry>
        </mxCell>
        <mxCell id="MD6l4VZ1lRJNJTrKG-ep-250" value="Administrador&amp;nbsp;" style="shape=umlActor;verticalLabelPosition=bottom;verticalAlign=top;html=1;outlineConnect=0;" vertex="1" parent="1">
          <mxGeometry x="520" y="1700" width="30" height="60" as="geometry" />
        </mxCell>
        <mxCell id="MD6l4VZ1lRJNJTrKG-ep-251" value="Crear Roles" style="ellipse;whiteSpace=wrap;html=1;" vertex="1" parent="1">
          <mxGeometry x="650" y="1640" width="130" height="50" as="geometry" />
        </mxCell>
        <mxCell id="MD6l4VZ1lRJNJTrKG-ep-252" value="Modificar Roles" style="ellipse;whiteSpace=wrap;html=1;" vertex="1" parent="1">
          <mxGeometry x="654" y="1700" width="130" height="50" as="geometry" />
        </mxCell>
        <mxCell id="MD6l4VZ1lRJNJTrKG-ep-253" value="Eliminar Roles" style="ellipse;whiteSpace=wrap;html=1;" vertex="1" parent="1">
          <mxGeometry x="650" y="1760" width="130" height="50" as="geometry" />
        </mxCell>
        <mxCell id="MD6l4VZ1lRJNJTrKG-ep-254" value="" style="endArrow=none;html=1;rounded=0;exitX=1;exitY=0.3333333333333333;exitDx=0;exitDy=0;exitPerimeter=0;entryX=0;entryY=0.5;entryDx=0;entryDy=0;" edge="1" source="MD6l4VZ1lRJNJTrKG-ep-250" target="MD6l4VZ1lRJNJTrKG-ep-251" parent="1">
          <mxGeometry width="50" height="50" relative="1" as="geometry">
            <mxPoint x="550" y="1730" as="sourcePoint" />
            <mxPoint x="600" y="1680" as="targetPoint" />
          </mxGeometry>
        </mxCell>
        <mxCell id="MD6l4VZ1lRJNJTrKG-ep-255" value="" style="endArrow=none;html=1;rounded=0;exitX=1;exitY=0.3333333333333333;exitDx=0;exitDy=0;exitPerimeter=0;entryX=0;entryY=0.5;entryDx=0;entryDy=0;" edge="1" source="MD6l4VZ1lRJNJTrKG-ep-250" target="MD6l4VZ1lRJNJTrKG-ep-252" parent="1">
          <mxGeometry width="50" height="50" relative="1" as="geometry">
            <mxPoint x="560" y="1730" as="sourcePoint" />
            <mxPoint x="660" y="1675" as="targetPoint" />
          </mxGeometry>
        </mxCell>
        <mxCell id="MD6l4VZ1lRJNJTrKG-ep-256" value="" style="endArrow=none;html=1;rounded=0;exitX=1;exitY=0.3333333333333333;exitDx=0;exitDy=0;exitPerimeter=0;entryX=0;entryY=0.5;entryDx=0;entryDy=0;" edge="1" source="MD6l4VZ1lRJNJTrKG-ep-250" target="MD6l4VZ1lRJNJTrKG-ep-253" parent="1">
          <mxGeometry width="50" height="50" relative="1" as="geometry">
            <mxPoint x="560" y="1730" as="sourcePoint" />
            <mxPoint x="664" y="1735" as="targetPoint" />
          </mxGeometry>
        </mxCell>
        <mxCell id="MD6l4VZ1lRJNJTrKG-ep-257" value="&lt;div&gt;&lt;br&gt;&lt;/div&gt;&lt;div&gt;&lt;br&gt;&lt;/div&gt;&lt;div&gt;&lt;br&gt;&lt;/div&gt;&lt;div&gt;&lt;br&gt;&lt;/div&gt;&lt;div&gt;&lt;br&gt;&lt;/div&gt;&lt;div&gt;&lt;br&gt;&lt;/div&gt;&lt;div&gt;&lt;br&gt;&lt;/div&gt;&lt;div&gt;&lt;br&gt;&lt;/div&gt;&lt;div&gt;&lt;br&gt;&lt;/div&gt;&lt;div&gt;&lt;br&gt;&lt;/div&gt;&lt;div&gt;&lt;br&gt;&lt;/div&gt;&lt;div&gt;&lt;br&gt;&lt;/div&gt;&lt;div&gt;&lt;br&gt;&lt;/div&gt;Registro de Areas y Departamentos&amp;nbsp;" style="html=1;whiteSpace=wrap;" vertex="1" parent="1">
          <mxGeometry x="1024" y="1630" width="170" height="220" as="geometry" />
        </mxCell>
        <mxCell id="MD6l4VZ1lRJNJTrKG-ep-258" value="Administrador&amp;nbsp;" style="shape=umlActor;verticalLabelPosition=bottom;verticalAlign=top;html=1;outlineConnect=0;" vertex="1" parent="1">
          <mxGeometry x="910" y="1700" width="30" height="60" as="geometry" />
        </mxCell>
        <mxCell id="MD6l4VZ1lRJNJTrKG-ep-259" value="Registrar Areas o Departamentos" style="ellipse;whiteSpace=wrap;html=1;" vertex="1" parent="1">
          <mxGeometry x="1040" y="1640" width="130" height="50" as="geometry" />
        </mxCell>
        <mxCell id="MD6l4VZ1lRJNJTrKG-ep-260" value="Gestionar Areas o Departamentos&amp;nbsp;" style="ellipse;whiteSpace=wrap;html=1;" vertex="1" parent="1">
          <mxGeometry x="1044" y="1700" width="130" height="50" as="geometry" />
        </mxCell>
        <mxCell id="MD6l4VZ1lRJNJTrKG-ep-261" value="Eliminar Areas o Departamentos" style="ellipse;whiteSpace=wrap;html=1;" vertex="1" parent="1">
          <mxGeometry x="1040" y="1760" width="130" height="50" as="geometry" />
        </mxCell>
        <mxCell id="MD6l4VZ1lRJNJTrKG-ep-262" value="" style="endArrow=none;html=1;rounded=0;exitX=1;exitY=0.3333333333333333;exitDx=0;exitDy=0;exitPerimeter=0;entryX=0;entryY=0.5;entryDx=0;entryDy=0;" edge="1" source="MD6l4VZ1lRJNJTrKG-ep-258" target="MD6l4VZ1lRJNJTrKG-ep-259" parent="1">
          <mxGeometry width="50" height="50" relative="1" as="geometry">
            <mxPoint x="940" y="1730" as="sourcePoint" />
            <mxPoint x="990" y="1680" as="targetPoint" />
          </mxGeometry>
        </mxCell>
        <mxCell id="MD6l4VZ1lRJNJTrKG-ep-263" value="" style="endArrow=none;html=1;rounded=0;exitX=1;exitY=0.3333333333333333;exitDx=0;exitDy=0;exitPerimeter=0;entryX=0;entryY=0.5;entryDx=0;entryDy=0;" edge="1" source="MD6l4VZ1lRJNJTrKG-ep-258" target="MD6l4VZ1lRJNJTrKG-ep-260" parent="1">
          <mxGeometry width="50" height="50" relative="1" as="geometry">
            <mxPoint x="950" y="1730" as="sourcePoint" />
            <mxPoint x="1050" y="1675" as="targetPoint" />
          </mxGeometry>
        </mxCell>
        <mxCell id="MD6l4VZ1lRJNJTrKG-ep-264" value="" style="endArrow=none;html=1;rounded=0;exitX=1;exitY=0.3333333333333333;exitDx=0;exitDy=0;exitPerimeter=0;entryX=0;entryY=0.5;entryDx=0;entryDy=0;" edge="1" source="MD6l4VZ1lRJNJTrKG-ep-258" target="MD6l4VZ1lRJNJTrKG-ep-261" parent="1">
          <mxGeometry width="50" height="50" relative="1" as="geometry">
            <mxPoint x="950" y="1730" as="sourcePoint" />
            <mxPoint x="1054" y="1735" as="targetPoint" />
          </mxGeometry>
        </mxCell>
        <mxCell id="MD6l4VZ1lRJNJTrKG-ep-265" value="&lt;div&gt;&lt;br&gt;&lt;/div&gt;&lt;div&gt;&lt;br&gt;&lt;/div&gt;&lt;div&gt;&lt;br&gt;&lt;/div&gt;&lt;div&gt;&lt;br&gt;&lt;/div&gt;&lt;div&gt;&lt;br&gt;&lt;/div&gt;&lt;div&gt;&lt;br&gt;&lt;/div&gt;&lt;div&gt;&lt;br&gt;&lt;/div&gt;&lt;div&gt;&lt;br&gt;&lt;/div&gt;&lt;div&gt;&lt;br&gt;&lt;/div&gt;&lt;div&gt;&lt;br&gt;&lt;/div&gt;&lt;div&gt;&lt;br&gt;&lt;/div&gt;&lt;div&gt;&lt;br&gt;&lt;/div&gt;&lt;div&gt;&lt;br&gt;&lt;/div&gt;&lt;div&gt;&lt;br&gt;&lt;/div&gt;&lt;div&gt;&lt;br&gt;&lt;/div&gt;&lt;div&gt;&lt;br&gt;&lt;/div&gt;&lt;div&gt;&lt;br&gt;&lt;/div&gt;Registro de Areas y Departamentos&amp;nbsp;" style="html=1;whiteSpace=wrap;" vertex="1" parent="1">
          <mxGeometry x="1374" y="1630" width="170" height="290" as="geometry" />
        </mxCell>
        <mxCell id="MD6l4VZ1lRJNJTrKG-ep-266" value="Administrador&amp;nbsp;" style="shape=umlActor;verticalLabelPosition=bottom;verticalAlign=top;html=1;outlineConnect=0;" vertex="1" parent="1">
          <mxGeometry x="1260" y="1700" width="30" height="60" as="geometry" />
        </mxCell>
        <mxCell id="MD6l4VZ1lRJNJTrKG-ep-267" value="Registrar Nuevos Usuarios" style="ellipse;whiteSpace=wrap;html=1;" vertex="1" parent="1">
          <mxGeometry x="1390" y="1640" width="130" height="50" as="geometry" />
        </mxCell>
        <mxCell id="MD6l4VZ1lRJNJTrKG-ep-268" value="Asignarles Roles a los Usuarios" style="ellipse;whiteSpace=wrap;html=1;" vertex="1" parent="1">
          <mxGeometry x="1394" y="1700" width="130" height="50" as="geometry" />
        </mxCell>
        <mxCell id="MD6l4VZ1lRJNJTrKG-ep-269" value="Asociar a un Departamento" style="ellipse;whiteSpace=wrap;html=1;" vertex="1" parent="1">
          <mxGeometry x="1390" y="1760" width="130" height="50" as="geometry" />
        </mxCell>
        <mxCell id="MD6l4VZ1lRJNJTrKG-ep-270" value="" style="endArrow=none;html=1;rounded=0;exitX=1;exitY=0.3333333333333333;exitDx=0;exitDy=0;exitPerimeter=0;entryX=0;entryY=0.5;entryDx=0;entryDy=0;" edge="1" source="MD6l4VZ1lRJNJTrKG-ep-266" target="MD6l4VZ1lRJNJTrKG-ep-267" parent="1">
          <mxGeometry width="50" height="50" relative="1" as="geometry">
            <mxPoint x="1290" y="1730" as="sourcePoint" />
            <mxPoint x="1340" y="1680" as="targetPoint" />
          </mxGeometry>
        </mxCell>
        <mxCell id="MD6l4VZ1lRJNJTrKG-ep-271" value="" style="endArrow=none;html=1;rounded=0;exitX=1;exitY=0.3333333333333333;exitDx=0;exitDy=0;exitPerimeter=0;entryX=0;entryY=0.5;entryDx=0;entryDy=0;" edge="1" source="MD6l4VZ1lRJNJTrKG-ep-266" target="MD6l4VZ1lRJNJTrKG-ep-268" parent="1">
          <mxGeometry width="50" height="50" relative="1" as="geometry">
            <mxPoint x="1300" y="1730" as="sourcePoint" />
            <mxPoint x="1400" y="1675" as="targetPoint" />
          </mxGeometry>
        </mxCell>
        <mxCell id="MD6l4VZ1lRJNJTrKG-ep-272" value="" style="endArrow=none;html=1;rounded=0;exitX=1;exitY=0.3333333333333333;exitDx=0;exitDy=0;exitPerimeter=0;entryX=0;entryY=0.5;entryDx=0;entryDy=0;" edge="1" source="MD6l4VZ1lRJNJTrKG-ep-266" target="MD6l4VZ1lRJNJTrKG-ep-269" parent="1">
          <mxGeometry width="50" height="50" relative="1" as="geometry">
            <mxPoint x="1300" y="1730" as="sourcePoint" />
            <mxPoint x="1404" y="1735" as="targetPoint" />
          </mxGeometry>
        </mxCell>
        <mxCell id="MD6l4VZ1lRJNJTrKG-ep-273" value="Modificar InformaciÃ³n de los Usuarios" style="ellipse;whiteSpace=wrap;html=1;" vertex="1" parent="1">
          <mxGeometry x="1394" y="1820" width="130" height="50" as="geometry" />
        </mxCell>
        <mxCell id="MD6l4VZ1lRJNJTrKG-ep-274" value="" style="endArrow=none;html=1;rounded=0;entryX=0.002;entryY=0.603;entryDx=0;entryDy=0;entryPerimeter=0;" edge="1" target="MD6l4VZ1lRJNJTrKG-ep-273" parent="1">
          <mxGeometry width="50" height="50" relative="1" as="geometry">
            <mxPoint x="1290" y="1720" as="sourcePoint" />
            <mxPoint x="1400" y="1795" as="targetPoint" />
          </mxGeometry>
        </mxCell>
        <mxCell id="MD6l4VZ1lRJNJTrKG-ep-275" value="&lt;div&gt;&lt;br&gt;&lt;/div&gt;&lt;div&gt;&lt;br&gt;&lt;/div&gt;&lt;div&gt;&lt;br&gt;&lt;/div&gt;&lt;div&gt;&lt;br&gt;&lt;/div&gt;&lt;div&gt;&lt;br&gt;&lt;/div&gt;&lt;div&gt;&lt;br&gt;&lt;/div&gt;&lt;div&gt;&lt;br&gt;&lt;/div&gt;&lt;div&gt;&lt;br&gt;&lt;/div&gt;&lt;div&gt;&lt;br&gt;&lt;/div&gt;&lt;div&gt;&lt;br&gt;&lt;/div&gt;&lt;div&gt;&lt;br&gt;&lt;/div&gt;&lt;div&gt;&lt;br&gt;&lt;/div&gt;&lt;div&gt;&lt;br&gt;&lt;/div&gt;&lt;div&gt;&lt;br&gt;&lt;/div&gt;&lt;div&gt;&lt;br&gt;&lt;/div&gt;&lt;div&gt;&lt;br&gt;&lt;/div&gt;&lt;div&gt;&lt;span style=&quot;background-color: transparent; color: light-dark(rgb(0, 0, 0), rgb(255, 255, 255));&quot;&gt;Estados de los Tickets&amp;nbsp;&lt;/span&gt;&lt;/div&gt;" style="html=1;whiteSpace=wrap;" vertex="1" parent="1">
          <mxGeometry x="1700" y="1630" width="170" height="290" as="geometry" />
        </mxCell>
        <mxCell id="MD6l4VZ1lRJNJTrKG-ep-276" value="Administrador&amp;nbsp;" style="shape=umlActor;verticalLabelPosition=bottom;verticalAlign=top;html=1;outlineConnect=0;" vertex="1" parent="1">
          <mxGeometry x="1586" y="1700" width="30" height="60" as="geometry" />
        </mxCell>
        <mxCell id="MD6l4VZ1lRJNJTrKG-ep-277" value="Gesitionar Estados del Ticket" style="ellipse;whiteSpace=wrap;html=1;" vertex="1" parent="1">
          <mxGeometry x="1716" y="1640" width="130" height="50" as="geometry" />
        </mxCell>
        <mxCell id="MD6l4VZ1lRJNJTrKG-ep-278" value="Definir Nuevos Estados" style="ellipse;whiteSpace=wrap;html=1;" vertex="1" parent="1">
          <mxGeometry x="1720" y="1700" width="130" height="50" as="geometry" />
        </mxCell>
        <mxCell id="MD6l4VZ1lRJNJTrKG-ep-279" value="Modificar Estados" style="ellipse;whiteSpace=wrap;html=1;" vertex="1" parent="1">
          <mxGeometry x="1716" y="1760" width="130" height="50" as="geometry" />
        </mxCell>
        <mxCell id="MD6l4VZ1lRJNJTrKG-ep-280" value="" style="endArrow=none;html=1;rounded=0;exitX=1;exitY=0.3333333333333333;exitDx=0;exitDy=0;exitPerimeter=0;entryX=0;entryY=0.5;entryDx=0;entryDy=0;" edge="1" source="MD6l4VZ1lRJNJTrKG-ep-276" target="MD6l4VZ1lRJNJTrKG-ep-277" parent="1">
          <mxGeometry width="50" height="50" relative="1" as="geometry">
            <mxPoint x="1616" y="1730" as="sourcePoint" />
            <mxPoint x="1666" y="1680" as="targetPoint" />
          </mxGeometry>
        </mxCell>
        <mxCell id="MD6l4VZ1lRJNJTrKG-ep-281" value="" style="endArrow=none;html=1;rounded=0;exitX=1;exitY=0.3333333333333333;exitDx=0;exitDy=0;exitPerimeter=0;entryX=0;entryY=0.5;entryDx=0;entryDy=0;" edge="1" source="MD6l4VZ1lRJNJTrKG-ep-276" target="MD6l4VZ1lRJNJTrKG-ep-278" parent="1">
          <mxGeometry width="50" height="50" relative="1" as="geometry">
            <mxPoint x="1626" y="1730" as="sourcePoint" />
            <mxPoint x="1726" y="1675" as="targetPoint" />
          </mxGeometry>
        </mxCell>
        <mxCell id="MD6l4VZ1lRJNJTrKG-ep-282" value="" style="endArrow=none;html=1;rounded=0;exitX=1;exitY=0.3333333333333333;exitDx=0;exitDy=0;exitPerimeter=0;entryX=0;entryY=0.5;entryDx=0;entryDy=0;" edge="1" source="MD6l4VZ1lRJNJTrKG-ep-276" target="MD6l4VZ1lRJNJTrKG-ep-279" parent="1">
          <mxGeometry width="50" height="50" relative="1" as="geometry">
            <mxPoint x="1626" y="1730" as="sourcePoint" />
            <mxPoint x="1730" y="1735" as="targetPoint" />
          </mxGeometry>
        </mxCell>
        <mxCell id="MD6l4VZ1lRJNJTrKG-ep-283" value="Eliminar Estados" style="ellipse;whiteSpace=wrap;html=1;" vertex="1" parent="1">
          <mxGeometry x="1720" y="1820" width="130" height="50" as="geometry" />
        </mxCell>
        <mxCell id="MD6l4VZ1lRJNJTrKG-ep-284" value="&lt;div&gt;&lt;br&gt;&lt;/div&gt;&lt;div&gt;&lt;br&gt;&lt;/div&gt;&lt;div&gt;&lt;br&gt;&lt;/div&gt;&lt;div&gt;&lt;br&gt;&lt;/div&gt;&lt;div&gt;&lt;br&gt;&lt;/div&gt;&lt;div&gt;&lt;br&gt;&lt;/div&gt;&lt;div&gt;&lt;br&gt;&lt;/div&gt;&lt;div&gt;&lt;br&gt;&lt;/div&gt;&lt;div&gt;&lt;br&gt;&lt;/div&gt;&lt;div&gt;&lt;br&gt;&lt;/div&gt;&lt;div&gt;&lt;br&gt;&lt;/div&gt;&lt;div&gt;&lt;br&gt;&lt;/div&gt;&lt;div&gt;&lt;br&gt;&lt;/div&gt;&lt;div&gt;&lt;br&gt;&lt;/div&gt;&lt;div&gt;&lt;br&gt;&lt;/div&gt;&lt;div&gt;&lt;br&gt;&lt;/div&gt;&lt;div&gt;&lt;span style=&quot;background-color: transparent; color: light-dark(rgb(0, 0, 0), rgb(255, 255, 255));&quot;&gt;Configuracion de los flujos de trabajo&amp;nbsp;&lt;/span&gt;&lt;/div&gt;" style="html=1;whiteSpace=wrap;" vertex="1" parent="1">
          <mxGeometry x="2034" y="1630" width="170" height="290" as="geometry" />
        </mxCell>
        <mxCell id="MD6l4VZ1lRJNJTrKG-ep-285" value="Administrador&amp;nbsp;" style="shape=umlActor;verticalLabelPosition=bottom;verticalAlign=top;html=1;outlineConnect=0;" vertex="1" parent="1">
          <mxGeometry x="1920" y="1700" width="30" height="60" as="geometry" />
        </mxCell>
        <mxCell id="MD6l4VZ1lRJNJTrKG-ep-286" value="Gesitionar Flujos de Trabajo" style="ellipse;whiteSpace=wrap;html=1;" vertex="1" parent="1">
          <mxGeometry x="2050" y="1640" width="130" height="50" as="geometry" />
        </mxCell>
        <mxCell id="MD6l4VZ1lRJNJTrKG-ep-287" value="Crear Nuevo Flujo" style="ellipse;whiteSpace=wrap;html=1;" vertex="1" parent="1">
          <mxGeometry x="2054" y="1700" width="130" height="50" as="geometry" />
        </mxCell>
        <mxCell id="MD6l4VZ1lRJNJTrKG-ep-288" value="Modificar Flujo" style="ellipse;whiteSpace=wrap;html=1;" vertex="1" parent="1">
          <mxGeometry x="2050" y="1760" width="130" height="50" as="geometry" />
        </mxCell>
        <mxCell id="MD6l4VZ1lRJNJTrKG-ep-289" value="" style="endArrow=none;html=1;rounded=0;exitX=1;exitY=0.3333333333333333;exitDx=0;exitDy=0;exitPerimeter=0;entryX=0;entryY=0.5;entryDx=0;entryDy=0;" edge="1" source="MD6l4VZ1lRJNJTrKG-ep-285" target="MD6l4VZ1lRJNJTrKG-ep-286" parent="1">
          <mxGeometry width="50" height="50" relative="1" as="geometry">
            <mxPoint x="1950" y="1730" as="sourcePoint" />
            <mxPoint x="2000" y="1680" as="targetPoint" />
          </mxGeometry>
        </mxCell>
        <mxCell id="MD6l4VZ1lRJNJTrKG-ep-290" value="" style="endArrow=none;html=1;rounded=0;exitX=1;exitY=0.3333333333333333;exitDx=0;exitDy=0;exitPerimeter=0;entryX=0;entryY=0.5;entryDx=0;entryDy=0;" edge="1" source="MD6l4VZ1lRJNJTrKG-ep-285" target="MD6l4VZ1lRJNJTrKG-ep-287" parent="1">
          <mxGeometry width="50" height="50" relative="1" as="geometry">
            <mxPoint x="1960" y="1730" as="sourcePoint" />
            <mxPoint x="2060" y="1675" as="targetPoint" />
          </mxGeometry>
        </mxCell>
        <mxCell id="MD6l4VZ1lRJNJTrKG-ep-291" value="" style="endArrow=none;html=1;rounded=0;exitX=1;exitY=0.3333333333333333;exitDx=0;exitDy=0;exitPerimeter=0;entryX=0;entryY=0.5;entryDx=0;entryDy=0;" edge="1" source="MD6l4VZ1lRJNJTrKG-ep-285" target="MD6l4VZ1lRJNJTrKG-ep-288" parent="1">
          <mxGeometry width="50" height="50" relative="1" as="geometry">
            <mxPoint x="1960" y="1730" as="sourcePoint" />
            <mxPoint x="2064" y="1735" as="targetPoint" />
          </mxGeometry>
        </mxCell>
        <mxCell id="MD6l4VZ1lRJNJTrKG-ep-292" value="Eliminar Flujo" style="ellipse;whiteSpace=wrap;html=1;" vertex="1" parent="1">
          <mxGeometry x="2054" y="1820" width="130" height="50" as="geometry" />
        </mxCell>
        <mxCell id="MD6l4VZ1lRJNJTrKG-ep-293" value="&lt;div&gt;&lt;br&gt;&lt;/div&gt;&lt;div&gt;&lt;br&gt;&lt;/div&gt;&lt;div&gt;&lt;br&gt;&lt;/div&gt;&lt;div&gt;&lt;br&gt;&lt;/div&gt;&lt;div&gt;&lt;br&gt;&lt;/div&gt;&lt;div&gt;&lt;br&gt;&lt;/div&gt;&lt;div&gt;&lt;br&gt;&lt;/div&gt;&lt;div&gt;&lt;br&gt;&lt;/div&gt;&lt;div&gt;&lt;br&gt;&lt;/div&gt;&lt;div&gt;&lt;br&gt;&lt;/div&gt;&lt;div&gt;&lt;br&gt;&lt;/div&gt;&lt;div&gt;&lt;br&gt;&lt;/div&gt;&lt;div&gt;&lt;br&gt;&lt;/div&gt;&lt;div&gt;&lt;br&gt;&lt;/div&gt;&lt;div&gt;&lt;br&gt;&lt;/div&gt;&lt;div&gt;&lt;br&gt;&lt;/div&gt;&lt;div&gt;&lt;span style=&quot;background-color: transparent; color: light-dark(rgb(0, 0, 0), rgb(255, 255, 255));&quot;&gt;Gestion de Tickets&amp;nbsp;&lt;/span&gt;&lt;/div&gt;" style="html=1;whiteSpace=wrap;" vertex="1" parent="1">
          <mxGeometry x="2350" y="1640" width="170" height="290" as="geometry" />
        </mxCell>
        <mxCell id="MD6l4VZ1lRJNJTrKG-ep-294" value="Administrador&amp;nbsp;" style="shape=umlActor;verticalLabelPosition=bottom;verticalAlign=top;html=1;outlineConnect=0;" vertex="1" parent="1">
          <mxGeometry x="2240" y="1655" width="30" height="60" as="geometry" />
        </mxCell>
        <mxCell id="MD6l4VZ1lRJNJTrKG-ep-295" value="Registrar" style="ellipse;whiteSpace=wrap;html=1;" vertex="1" parent="1">
          <mxGeometry x="2366" y="1650" width="130" height="50" as="geometry" />
        </mxCell>
        <mxCell id="MD6l4VZ1lRJNJTrKG-ep-296" value="Actualizar" style="ellipse;whiteSpace=wrap;html=1;" vertex="1" parent="1">
          <mxGeometry x="2370" y="1710" width="130" height="50" as="geometry" />
        </mxCell>
        <mxCell id="MD6l4VZ1lRJNJTrKG-ep-297" value="Asignar" style="ellipse;whiteSpace=wrap;html=1;" vertex="1" parent="1">
          <mxGeometry x="2366" y="1770" width="130" height="50" as="geometry" />
        </mxCell>
        <mxCell id="MD6l4VZ1lRJNJTrKG-ep-298" value="Cerrar" style="ellipse;whiteSpace=wrap;html=1;" vertex="1" parent="1">
          <mxGeometry x="2370" y="1830" width="130" height="50" as="geometry" />
        </mxCell>
        <mxCell id="MD6l4VZ1lRJNJTrKG-ep-299" value="Tecnico" style="shape=umlActor;verticalLabelPosition=bottom;verticalAlign=top;html=1;outlineConnect=0;" vertex="1" parent="1">
          <mxGeometry x="2240" y="1755" width="30" height="60" as="geometry" />
        </mxCell>
        <mxCell id="MD6l4VZ1lRJNJTrKG-ep-300" value="Usuario" style="shape=umlActor;verticalLabelPosition=bottom;verticalAlign=top;html=1;outlineConnect=0;" vertex="1" parent="1">
          <mxGeometry x="2240" y="1855" width="30" height="60" as="geometry" />
        </mxCell>
        <mxCell id="MD6l4VZ1lRJNJTrKG-ep-301" value="" style="endArrow=none;html=1;rounded=0;exitX=1;exitY=0.3333333333333333;exitDx=0;exitDy=0;exitPerimeter=0;entryX=0;entryY=0.5;entryDx=0;entryDy=0;" edge="1" source="MD6l4VZ1lRJNJTrKG-ep-294" target="MD6l4VZ1lRJNJTrKG-ep-295" parent="1">
          <mxGeometry width="50" height="50" relative="1" as="geometry">
            <mxPoint x="2300" y="1665" as="sourcePoint" />
            <mxPoint x="2350" y="1615" as="targetPoint" />
          </mxGeometry>
        </mxCell>
        <mxCell id="MD6l4VZ1lRJNJTrKG-ep-302" value="" style="endArrow=none;html=1;rounded=0;exitX=1;exitY=0.3333333333333333;exitDx=0;exitDy=0;exitPerimeter=0;entryX=0;entryY=0.5;entryDx=0;entryDy=0;" edge="1" source="MD6l4VZ1lRJNJTrKG-ep-294" target="MD6l4VZ1lRJNJTrKG-ep-296" parent="1">
          <mxGeometry width="50" height="50" relative="1" as="geometry">
            <mxPoint x="2280" y="1685" as="sourcePoint" />
            <mxPoint x="2376" y="1685" as="targetPoint" />
          </mxGeometry>
        </mxCell>
        <mxCell id="MD6l4VZ1lRJNJTrKG-ep-303" value="" style="endArrow=none;html=1;rounded=0;exitX=1;exitY=0.3333333333333333;exitDx=0;exitDy=0;exitPerimeter=0;entryX=0;entryY=0.5;entryDx=0;entryDy=0;" edge="1" source="MD6l4VZ1lRJNJTrKG-ep-294" target="MD6l4VZ1lRJNJTrKG-ep-297" parent="1">
          <mxGeometry width="50" height="50" relative="1" as="geometry">
            <mxPoint x="2280" y="1685" as="sourcePoint" />
            <mxPoint x="2380" y="1745" as="targetPoint" />
          </mxGeometry>
        </mxCell>
        <mxCell id="MD6l4VZ1lRJNJTrKG-ep-304" value="" style="endArrow=none;html=1;rounded=0;entryX=-0.016;entryY=0.394;entryDx=0;entryDy=0;entryPerimeter=0;" edge="1" target="MD6l4VZ1lRJNJTrKG-ep-298" parent="1">
          <mxGeometry width="50" height="50" relative="1" as="geometry">
            <mxPoint x="2270" y="1675" as="sourcePoint" />
            <mxPoint x="2366" y="1805" as="targetPoint" />
          </mxGeometry>
        </mxCell>
        <mxCell id="MD6l4VZ1lRJNJTrKG-ep-305" value="" style="endArrow=none;html=1;rounded=0;entryX=0;entryY=0.5;entryDx=0;entryDy=0;exitX=1;exitY=0.3333333333333333;exitDx=0;exitDy=0;exitPerimeter=0;" edge="1" source="MD6l4VZ1lRJNJTrKG-ep-299" target="MD6l4VZ1lRJNJTrKG-ep-295" parent="1">
          <mxGeometry width="50" height="50" relative="1" as="geometry">
            <mxPoint x="2280" y="1685" as="sourcePoint" />
            <mxPoint x="2378" y="1860" as="targetPoint" />
          </mxGeometry>
        </mxCell>
        <mxCell id="MD6l4VZ1lRJNJTrKG-ep-306" value="" style="endArrow=none;html=1;rounded=0;entryX=0;entryY=0.5;entryDx=0;entryDy=0;exitX=1;exitY=0.3333333333333333;exitDx=0;exitDy=0;exitPerimeter=0;" edge="1" source="MD6l4VZ1lRJNJTrKG-ep-299" target="MD6l4VZ1lRJNJTrKG-ep-296" parent="1">
          <mxGeometry width="50" height="50" relative="1" as="geometry">
            <mxPoint x="2280" y="1785" as="sourcePoint" />
            <mxPoint x="2376" y="1685" as="targetPoint" />
          </mxGeometry>
        </mxCell>
        <mxCell id="MD6l4VZ1lRJNJTrKG-ep-307" value="" style="endArrow=none;html=1;rounded=0;entryX=-0.029;entryY=0.489;entryDx=0;entryDy=0;entryPerimeter=0;" edge="1" target="MD6l4VZ1lRJNJTrKG-ep-297" parent="1">
          <mxGeometry width="50" height="50" relative="1" as="geometry">
            <mxPoint x="2270" y="1775" as="sourcePoint" />
            <mxPoint x="2380" y="1745" as="targetPoint" />
          </mxGeometry>
        </mxCell>
        <mxCell id="MD6l4VZ1lRJNJTrKG-ep-308" value="" style="endArrow=none;html=1;rounded=0;entryX=0;entryY=0.5;entryDx=0;entryDy=0;" edge="1" target="MD6l4VZ1lRJNJTrKG-ep-298" parent="1">
          <mxGeometry width="50" height="50" relative="1" as="geometry">
            <mxPoint x="2270" y="1775" as="sourcePoint" />
            <mxPoint x="2372" y="1804" as="targetPoint" />
          </mxGeometry>
        </mxCell>
        <mxCell id="MD6l4VZ1lRJNJTrKG-ep-309" value="" style="endArrow=none;html=1;rounded=0;entryX=0;entryY=0.5;entryDx=0;entryDy=0;exitX=1;exitY=0.3333333333333333;exitDx=0;exitDy=0;exitPerimeter=0;" edge="1" source="MD6l4VZ1lRJNJTrKG-ep-300" target="MD6l4VZ1lRJNJTrKG-ep-298" parent="1">
          <mxGeometry width="50" height="50" relative="1" as="geometry">
            <mxPoint x="2280" y="1785" as="sourcePoint" />
            <mxPoint x="2380" y="1865" as="targetPoint" />
          </mxGeometry>
        </mxCell>
        <mxCell id="MD6l4VZ1lRJNJTrKG-ep-310" value="" style="endArrow=none;html=1;rounded=0;entryX=0;entryY=0.5;entryDx=0;entryDy=0;exitX=1;exitY=0.3333333333333333;exitDx=0;exitDy=0;exitPerimeter=0;" edge="1" source="MD6l4VZ1lRJNJTrKG-ep-300" target="MD6l4VZ1lRJNJTrKG-ep-297" parent="1">
          <mxGeometry width="50" height="50" relative="1" as="geometry">
            <mxPoint x="2280" y="1885" as="sourcePoint" />
            <mxPoint x="2380" y="1865" as="targetPoint" />
          </mxGeometry>
        </mxCell>
        <mxCell id="MD6l4VZ1lRJNJTrKG-ep-311" value="" style="endArrow=none;html=1;rounded=0;entryX=0;entryY=0.5;entryDx=0;entryDy=0;" edge="1" target="MD6l4VZ1lRJNJTrKG-ep-296" parent="1">
          <mxGeometry width="50" height="50" relative="1" as="geometry">
            <mxPoint x="2270" y="1875" as="sourcePoint" />
            <mxPoint x="2376" y="1805" as="targetPoint" />
          </mxGeometry>
        </mxCell>
        <mxCell id="MD6l4VZ1lRJNJTrKG-ep-312" value="" style="endArrow=none;html=1;rounded=0;entryX=0;entryY=0.5;entryDx=0;entryDy=0;" edge="1" target="MD6l4VZ1lRJNJTrKG-ep-295" parent="1">
          <mxGeometry width="50" height="50" relative="1" as="geometry">
            <mxPoint x="2270" y="1875" as="sourcePoint" />
            <mxPoint x="2380" y="1745" as="targetPoint" />
          </mxGeometry>
        </mxCell>
        <mxCell id="MD6l4VZ1lRJNJTrKG-ep-313" value="&lt;div&gt;&lt;br&gt;&lt;/div&gt;&lt;div&gt;&lt;br&gt;&lt;/div&gt;&lt;div&gt;&lt;br&gt;&lt;/div&gt;&lt;div&gt;&lt;br&gt;&lt;/div&gt;&lt;div&gt;&lt;br&gt;&lt;/div&gt;&lt;div&gt;&lt;br&gt;&lt;/div&gt;&lt;div&gt;&lt;br&gt;&lt;/div&gt;&lt;div&gt;&lt;br&gt;&lt;/div&gt;&lt;div&gt;&lt;br&gt;&lt;/div&gt;&lt;div&gt;&lt;br&gt;&lt;/div&gt;&lt;div&gt;&lt;br&gt;&lt;/div&gt;&lt;div&gt;&lt;br&gt;&lt;/div&gt;&lt;div&gt;&lt;br&gt;&lt;/div&gt;&lt;div&gt;&lt;br&gt;&lt;/div&gt;&lt;div&gt;&lt;br&gt;&lt;/div&gt;&lt;div&gt;&lt;br&gt;&lt;/div&gt;&lt;div&gt;&lt;span style=&quot;background-color: transparent; color: light-dark(rgb(0, 0, 0), rgb(255, 255, 255));&quot;&gt;&lt;br&gt;&lt;/span&gt;&lt;/div&gt;&lt;div&gt;&lt;span style=&quot;background-color: transparent; color: light-dark(rgb(0, 0, 0), rgb(255, 255, 255));&quot;&gt;&lt;br&gt;&lt;/span&gt;&lt;/div&gt;&lt;div&gt;&lt;span style=&quot;background-color: transparent; color: light-dark(rgb(0, 0, 0), rgb(255, 255, 255));&quot;&gt;&lt;br&gt;&lt;/span&gt;&lt;/div&gt;&lt;div&gt;&lt;span style=&quot;background-color: transparent; color: light-dark(rgb(0, 0, 0), rgb(255, 255, 255));&quot;&gt;&lt;br&gt;&lt;/span&gt;&lt;/div&gt;&lt;div&gt;&lt;span style=&quot;background-color: transparent; color: light-dark(rgb(0, 0, 0), rgb(255, 255, 255));&quot;&gt;&lt;br&gt;&lt;/span&gt;&lt;/div&gt;&lt;div&gt;&lt;span style=&quot;background-color: transparent; color: light-dark(rgb(0, 0, 0), rgb(255, 255, 255));&quot;&gt;&lt;br&gt;&lt;/span&gt;&lt;/div&gt;&lt;div&gt;&lt;span style=&quot;background-color: transparent; color: light-dark(rgb(0, 0, 0), rgb(255, 255, 255));&quot;&gt;&lt;br&gt;&lt;/span&gt;&lt;/div&gt;&lt;div&gt;&lt;span style=&quot;background-color: transparent; color: light-dark(rgb(0, 0, 0), rgb(255, 255, 255));&quot;&gt;&lt;br&gt;&lt;/span&gt;&lt;/div&gt;&lt;div&gt;&lt;span style=&quot;background-color: transparent; color: light-dark(rgb(0, 0, 0), rgb(255, 255, 255));&quot;&gt;&lt;br&gt;&lt;/span&gt;&lt;/div&gt;&lt;div&gt;&lt;span style=&quot;background-color: transparent; color: light-dark(rgb(0, 0, 0), rgb(255, 255, 255));&quot;&gt;&lt;br&gt;&lt;/span&gt;&lt;/div&gt;&lt;div&gt;&lt;span style=&quot;background-color: transparent; color: light-dark(rgb(0, 0, 0), rgb(255, 255, 255));&quot;&gt;&lt;br&gt;&lt;/span&gt;&lt;/div&gt;&lt;div&gt;&lt;span style=&quot;background-color: transparent; color: light-dark(rgb(0, 0, 0), rgb(255, 255, 255));&quot;&gt;&lt;br&gt;&lt;/span&gt;&lt;/div&gt;&lt;div&gt;Lista de Solicitudes Pendientes&lt;/div&gt;" style="html=1;whiteSpace=wrap;" vertex="1" parent="1">
          <mxGeometry x="2690" y="1650" width="170" height="470" as="geometry" />
        </mxCell>
        <mxCell id="MD6l4VZ1lRJNJTrKG-ep-314" value="Administrador&amp;nbsp;" style="shape=umlActor;verticalLabelPosition=bottom;verticalAlign=top;html=1;outlineConnect=0;" vertex="1" parent="1">
          <mxGeometry x="2580" y="1665" width="30" height="60" as="geometry" />
        </mxCell>
        <mxCell id="MD6l4VZ1lRJNJTrKG-ep-315" value="Vista de Solicitudes Pendientes" style="ellipse;whiteSpace=wrap;html=1;" vertex="1" parent="1">
          <mxGeometry x="2706" y="1660" width="130" height="50" as="geometry" />
        </mxCell>
        <mxCell id="MD6l4VZ1lRJNJTrKG-ep-316" value="Filtar por el Estado" style="ellipse;whiteSpace=wrap;html=1;" vertex="1" parent="1">
          <mxGeometry x="2710" y="1720" width="130" height="50" as="geometry" />
        </mxCell>
        <mxCell id="MD6l4VZ1lRJNJTrKG-ep-317" value="Consultar Detalles&amp;nbsp;" style="ellipse;whiteSpace=wrap;html=1;" vertex="1" parent="1">
          <mxGeometry x="2706" y="1780" width="130" height="50" as="geometry" />
        </mxCell>
        <mxCell id="MD6l4VZ1lRJNJTrKG-ep-318" value="Agregar Notas" style="ellipse;whiteSpace=wrap;html=1;" vertex="1" parent="1">
          <mxGeometry x="2710" y="1840" width="130" height="50" as="geometry" />
        </mxCell>
        <mxCell id="MD6l4VZ1lRJNJTrKG-ep-319" value="Tecnico" style="shape=umlActor;verticalLabelPosition=bottom;verticalAlign=top;html=1;outlineConnect=0;" vertex="1" parent="1">
          <mxGeometry x="2580" y="1765" width="30" height="60" as="geometry" />
        </mxCell>
        <mxCell id="MD6l4VZ1lRJNJTrKG-ep-320" value="Usuario" style="shape=umlActor;verticalLabelPosition=bottom;verticalAlign=top;html=1;outlineConnect=0;" vertex="1" parent="1">
          <mxGeometry x="2580" y="1865" width="30" height="60" as="geometry" />
        </mxCell>
        <mxCell id="MD6l4VZ1lRJNJTrKG-ep-321" value="" style="endArrow=none;html=1;rounded=0;exitX=1;exitY=0.3333333333333333;exitDx=0;exitDy=0;exitPerimeter=0;entryX=0;entryY=0.5;entryDx=0;entryDy=0;" edge="1" source="MD6l4VZ1lRJNJTrKG-ep-314" target="MD6l4VZ1lRJNJTrKG-ep-315" parent="1">
          <mxGeometry width="50" height="50" relative="1" as="geometry">
            <mxPoint x="2640" y="1675" as="sourcePoint" />
            <mxPoint x="2690" y="1625" as="targetPoint" />
          </mxGeometry>
        </mxCell>
        <mxCell id="MD6l4VZ1lRJNJTrKG-ep-322" value="" style="endArrow=none;html=1;rounded=0;exitX=1;exitY=0.3333333333333333;exitDx=0;exitDy=0;exitPerimeter=0;entryX=0;entryY=0.5;entryDx=0;entryDy=0;" edge="1" source="MD6l4VZ1lRJNJTrKG-ep-314" target="MD6l4VZ1lRJNJTrKG-ep-316" parent="1">
          <mxGeometry width="50" height="50" relative="1" as="geometry">
            <mxPoint x="2620" y="1695" as="sourcePoint" />
            <mxPoint x="2716" y="1695" as="targetPoint" />
          </mxGeometry>
        </mxCell>
        <mxCell id="MD6l4VZ1lRJNJTrKG-ep-323" value="" style="endArrow=none;html=1;rounded=0;exitX=1;exitY=0.3333333333333333;exitDx=0;exitDy=0;exitPerimeter=0;entryX=0;entryY=0.5;entryDx=0;entryDy=0;" edge="1" source="MD6l4VZ1lRJNJTrKG-ep-314" target="MD6l4VZ1lRJNJTrKG-ep-317" parent="1">
          <mxGeometry width="50" height="50" relative="1" as="geometry">
            <mxPoint x="2620" y="1695" as="sourcePoint" />
            <mxPoint x="2720" y="1755" as="targetPoint" />
          </mxGeometry>
        </mxCell>
        <mxCell id="MD6l4VZ1lRJNJTrKG-ep-324" value="" style="endArrow=none;html=1;rounded=0;entryX=-0.016;entryY=0.394;entryDx=0;entryDy=0;entryPerimeter=0;" edge="1" target="MD6l4VZ1lRJNJTrKG-ep-318" parent="1">
          <mxGeometry width="50" height="50" relative="1" as="geometry">
            <mxPoint x="2610" y="1685" as="sourcePoint" />
            <mxPoint x="2706" y="1815" as="targetPoint" />
          </mxGeometry>
        </mxCell>
        <mxCell id="MD6l4VZ1lRJNJTrKG-ep-325" value="" style="endArrow=none;html=1;rounded=0;entryX=0;entryY=0.5;entryDx=0;entryDy=0;exitX=1;exitY=0.3333333333333333;exitDx=0;exitDy=0;exitPerimeter=0;" edge="1" source="MD6l4VZ1lRJNJTrKG-ep-319" target="MD6l4VZ1lRJNJTrKG-ep-315" parent="1">
          <mxGeometry width="50" height="50" relative="1" as="geometry">
            <mxPoint x="2620" y="1695" as="sourcePoint" />
            <mxPoint x="2718" y="1870" as="targetPoint" />
          </mxGeometry>
        </mxCell>
        <mxCell id="MD6l4VZ1lRJNJTrKG-ep-326" value="" style="endArrow=none;html=1;rounded=0;entryX=0;entryY=0.5;entryDx=0;entryDy=0;exitX=1;exitY=0.3333333333333333;exitDx=0;exitDy=0;exitPerimeter=0;" edge="1" source="MD6l4VZ1lRJNJTrKG-ep-319" target="MD6l4VZ1lRJNJTrKG-ep-316" parent="1">
          <mxGeometry width="50" height="50" relative="1" as="geometry">
            <mxPoint x="2620" y="1795" as="sourcePoint" />
            <mxPoint x="2716" y="1695" as="targetPoint" />
          </mxGeometry>
        </mxCell>
        <mxCell id="MD6l4VZ1lRJNJTrKG-ep-327" value="" style="endArrow=none;html=1;rounded=0;entryX=-0.029;entryY=0.489;entryDx=0;entryDy=0;entryPerimeter=0;" edge="1" target="MD6l4VZ1lRJNJTrKG-ep-317" parent="1">
          <mxGeometry width="50" height="50" relative="1" as="geometry">
            <mxPoint x="2610" y="1785" as="sourcePoint" />
            <mxPoint x="2720" y="1755" as="targetPoint" />
          </mxGeometry>
        </mxCell>
        <mxCell id="MD6l4VZ1lRJNJTrKG-ep-328" value="" style="endArrow=none;html=1;rounded=0;entryX=0;entryY=0.5;entryDx=0;entryDy=0;" edge="1" target="MD6l4VZ1lRJNJTrKG-ep-318" parent="1">
          <mxGeometry width="50" height="50" relative="1" as="geometry">
            <mxPoint x="2610" y="1785" as="sourcePoint" />
            <mxPoint x="2712" y="1814" as="targetPoint" />
          </mxGeometry>
        </mxCell>
        <mxCell id="MD6l4VZ1lRJNJTrKG-ep-329" value="" style="endArrow=none;html=1;rounded=0;entryX=0;entryY=0.5;entryDx=0;entryDy=0;exitX=1;exitY=0.3333333333333333;exitDx=0;exitDy=0;exitPerimeter=0;" edge="1" source="MD6l4VZ1lRJNJTrKG-ep-320" target="MD6l4VZ1lRJNJTrKG-ep-318" parent="1">
          <mxGeometry width="50" height="50" relative="1" as="geometry">
            <mxPoint x="2620" y="1795" as="sourcePoint" />
            <mxPoint x="2720" y="1875" as="targetPoint" />
          </mxGeometry>
        </mxCell>
        <mxCell id="MD6l4VZ1lRJNJTrKG-ep-330" value="" style="endArrow=none;html=1;rounded=0;entryX=0;entryY=0.5;entryDx=0;entryDy=0;exitX=1;exitY=0.3333333333333333;exitDx=0;exitDy=0;exitPerimeter=0;" edge="1" source="MD6l4VZ1lRJNJTrKG-ep-320" target="MD6l4VZ1lRJNJTrKG-ep-317" parent="1">
          <mxGeometry width="50" height="50" relative="1" as="geometry">
            <mxPoint x="2620" y="1895" as="sourcePoint" />
            <mxPoint x="2720" y="1875" as="targetPoint" />
          </mxGeometry>
        </mxCell>
        <mxCell id="MD6l4VZ1lRJNJTrKG-ep-331" value="" style="endArrow=none;html=1;rounded=0;entryX=0;entryY=0.5;entryDx=0;entryDy=0;" edge="1" target="MD6l4VZ1lRJNJTrKG-ep-316" parent="1">
          <mxGeometry width="50" height="50" relative="1" as="geometry">
            <mxPoint x="2610" y="1885" as="sourcePoint" />
            <mxPoint x="2716" y="1815" as="targetPoint" />
          </mxGeometry>
        </mxCell>
        <mxCell id="MD6l4VZ1lRJNJTrKG-ep-332" value="" style="endArrow=none;html=1;rounded=0;entryX=0;entryY=0.5;entryDx=0;entryDy=0;" edge="1" target="MD6l4VZ1lRJNJTrKG-ep-315" parent="1">
          <mxGeometry width="50" height="50" relative="1" as="geometry">
            <mxPoint x="2610" y="1885" as="sourcePoint" />
            <mxPoint x="2720" y="1755" as="targetPoint" />
          </mxGeometry>
        </mxCell>
        <mxCell id="MD6l4VZ1lRJNJTrKG-ep-333" value="Modificar el Estado de un Ticket" style="ellipse;whiteSpace=wrap;html=1;" vertex="1" parent="1">
          <mxGeometry x="2710" y="1900" width="130" height="50" as="geometry" />
        </mxCell>
        <mxCell id="MD6l4VZ1lRJNJTrKG-ep-334" value="Asignar Tickets" style="ellipse;whiteSpace=wrap;html=1;" vertex="1" parent="1">
          <mxGeometry x="2706" y="1960" width="130" height="50" as="geometry" />
        </mxCell>
        <mxCell id="MD6l4VZ1lRJNJTrKG-ep-335" value="Filtros Avanzados" style="ellipse;whiteSpace=wrap;html=1;" vertex="1" parent="1">
          <mxGeometry x="2710" y="2020" width="130" height="50" as="geometry" />
        </mxCell>
        <mxCell id="MD6l4VZ1lRJNJTrKG-ep-336" value="" style="endArrow=none;html=1;rounded=0;entryX=0;entryY=0.5;entryDx=0;entryDy=0;exitX=1;exitY=0.3333333333333333;exitDx=0;exitDy=0;exitPerimeter=0;" edge="1" source="MD6l4VZ1lRJNJTrKG-ep-319" target="MD6l4VZ1lRJNJTrKG-ep-333" parent="1">
          <mxGeometry width="50" height="50" relative="1" as="geometry">
            <mxPoint x="2620" y="1795" as="sourcePoint" />
            <mxPoint x="2720" y="1875" as="targetPoint" />
          </mxGeometry>
        </mxCell>
        <mxCell id="MD6l4VZ1lRJNJTrKG-ep-337" value="" style="endArrow=none;html=1;rounded=0;entryX=0;entryY=0.5;entryDx=0;entryDy=0;exitX=1;exitY=0.3333333333333333;exitDx=0;exitDy=0;exitPerimeter=0;" edge="1" source="MD6l4VZ1lRJNJTrKG-ep-314" target="MD6l4VZ1lRJNJTrKG-ep-333" parent="1">
          <mxGeometry width="50" height="50" relative="1" as="geometry">
            <mxPoint x="2620" y="1695" as="sourcePoint" />
            <mxPoint x="2718" y="1870" as="targetPoint" />
          </mxGeometry>
        </mxCell>
        <mxCell id="MD6l4VZ1lRJNJTrKG-ep-338" value="" style="endArrow=none;html=1;rounded=0;entryX=0;entryY=0.5;entryDx=0;entryDy=0;exitX=1;exitY=0.3333333333333333;exitDx=0;exitDy=0;exitPerimeter=0;" edge="1" source="MD6l4VZ1lRJNJTrKG-ep-314" target="MD6l4VZ1lRJNJTrKG-ep-334" parent="1">
          <mxGeometry width="50" height="50" relative="1" as="geometry">
            <mxPoint x="2620" y="1695" as="sourcePoint" />
            <mxPoint x="2720" y="1935" as="targetPoint" />
          </mxGeometry>
        </mxCell>
        <mxCell id="MD6l4VZ1lRJNJTrKG-ep-339" value="" style="endArrow=none;html=1;rounded=0;entryX=0;entryY=0.5;entryDx=0;entryDy=0;exitX=1;exitY=0.3333333333333333;exitDx=0;exitDy=0;exitPerimeter=0;" edge="1" source="MD6l4VZ1lRJNJTrKG-ep-314" target="MD6l4VZ1lRJNJTrKG-ep-335" parent="1">
          <mxGeometry width="50" height="50" relative="1" as="geometry">
            <mxPoint x="2620" y="1695" as="sourcePoint" />
            <mxPoint x="2716" y="1995" as="targetPoint" />
          </mxGeometry>
        </mxCell>
        <mxCell id="MD6l4VZ1lRJNJTrKG-ep-340" value="&lt;div&gt;&lt;br&gt;&lt;/div&gt;&lt;div&gt;&lt;br&gt;&lt;/div&gt;&lt;div&gt;&lt;br&gt;&lt;/div&gt;&lt;div&gt;&lt;br&gt;&lt;/div&gt;&lt;div&gt;&lt;br&gt;&lt;/div&gt;&lt;div&gt;&lt;span style=&quot;background-color: transparent; color: light-dark(rgb(0, 0, 0), rgb(255, 255, 255));&quot;&gt;Combio Estado de un Tickets&amp;nbsp;&lt;/span&gt;&lt;/div&gt;" style="html=1;whiteSpace=wrap;" vertex="1" parent="1">
          <mxGeometry x="3040" y="1660" width="170" height="100" as="geometry" />
        </mxCell>
        <mxCell id="MD6l4VZ1lRJNJTrKG-ep-341" value="Administrador&amp;nbsp;" style="shape=umlActor;verticalLabelPosition=bottom;verticalAlign=top;html=1;outlineConnect=0;" vertex="1" parent="1">
          <mxGeometry x="2930" y="1675" width="30" height="60" as="geometry" />
        </mxCell>
        <mxCell id="MD6l4VZ1lRJNJTrKG-ep-342" value="Modificar Estado de un Ticket" style="ellipse;whiteSpace=wrap;html=1;" vertex="1" parent="1">
          <mxGeometry x="3056" y="1670" width="130" height="50" as="geometry" />
        </mxCell>
        <mxCell id="MD6l4VZ1lRJNJTrKG-ep-343" value="Tecnico" style="shape=umlActor;verticalLabelPosition=bottom;verticalAlign=top;html=1;outlineConnect=0;" vertex="1" parent="1">
          <mxGeometry x="2930" y="1775" width="30" height="60" as="geometry" />
        </mxCell>
        <mxCell id="MD6l4VZ1lRJNJTrKG-ep-344" value="" style="endArrow=none;html=1;rounded=0;exitX=1;exitY=0.3333333333333333;exitDx=0;exitDy=0;exitPerimeter=0;entryX=0;entryY=0.5;entryDx=0;entryDy=0;" edge="1" source="MD6l4VZ1lRJNJTrKG-ep-341" target="MD6l4VZ1lRJNJTrKG-ep-342" parent="1">
          <mxGeometry width="50" height="50" relative="1" as="geometry">
            <mxPoint x="2990" y="1685" as="sourcePoint" />
            <mxPoint x="3040" y="1635" as="targetPoint" />
          </mxGeometry>
        </mxCell>
        <mxCell id="MD6l4VZ1lRJNJTrKG-ep-345" value="" style="endArrow=none;html=1;rounded=0;entryX=0;entryY=0.5;entryDx=0;entryDy=0;exitX=1;exitY=0.3333333333333333;exitDx=0;exitDy=0;exitPerimeter=0;" edge="1" source="MD6l4VZ1lRJNJTrKG-ep-343" target="MD6l4VZ1lRJNJTrKG-ep-342" parent="1">
          <mxGeometry width="50" height="50" relative="1" as="geometry">
            <mxPoint x="2970" y="1705" as="sourcePoint" />
            <mxPoint x="3068" y="1880" as="targetPoint" />
          </mxGeometry>
        </mxCell>
        <mxCell id="MD6l4VZ1lRJNJTrKG-ep-346" value="&lt;div&gt;&lt;br&gt;&lt;/div&gt;&lt;div&gt;&lt;br&gt;&lt;/div&gt;&lt;div&gt;&lt;br&gt;&lt;/div&gt;&lt;div&gt;&lt;br&gt;&lt;/div&gt;&lt;div&gt;&lt;span style=&quot;background-color: transparent; color: light-dark(rgb(0, 0, 0), rgb(255, 255, 255));&quot;&gt;Agregar notas a Tickets&amp;nbsp;&lt;/span&gt;&lt;/div&gt;" style="html=1;whiteSpace=wrap;" vertex="1" parent="1">
          <mxGeometry x="3420" y="1650" width="170" height="100" as="geometry" />
        </mxCell>
        <mxCell id="MD6l4VZ1lRJNJTrKG-ep-347" value="Administrador&amp;nbsp;" style="shape=umlActor;verticalLabelPosition=bottom;verticalAlign=top;html=1;outlineConnect=0;" vertex="1" parent="1">
          <mxGeometry x="3310" y="1665" width="30" height="60" as="geometry" />
        </mxCell>
        <mxCell id="MD6l4VZ1lRJNJTrKG-ep-348" value="Agregar notas de un Ticket" style="ellipse;whiteSpace=wrap;html=1;" vertex="1" parent="1">
          <mxGeometry x="3436" y="1660" width="130" height="50" as="geometry" />
        </mxCell>
        <mxCell id="MD6l4VZ1lRJNJTrKG-ep-349" value="Tecnico" style="shape=umlActor;verticalLabelPosition=bottom;verticalAlign=top;html=1;outlineConnect=0;" vertex="1" parent="1">
          <mxGeometry x="3310" y="1765" width="30" height="60" as="geometry" />
        </mxCell>
        <mxCell id="MD6l4VZ1lRJNJTrKG-ep-350" value="Usuario" style="shape=umlActor;verticalLabelPosition=bottom;verticalAlign=top;html=1;outlineConnect=0;" vertex="1" parent="1">
          <mxGeometry x="3310" y="1865" width="30" height="60" as="geometry" />
        </mxCell>
        <mxCell id="MD6l4VZ1lRJNJTrKG-ep-351" value="" style="endArrow=none;html=1;rounded=0;exitX=1;exitY=0.3333333333333333;exitDx=0;exitDy=0;exitPerimeter=0;entryX=0;entryY=0.5;entryDx=0;entryDy=0;" edge="1" source="MD6l4VZ1lRJNJTrKG-ep-347" target="MD6l4VZ1lRJNJTrKG-ep-348" parent="1">
          <mxGeometry width="50" height="50" relative="1" as="geometry">
            <mxPoint x="3370" y="1675" as="sourcePoint" />
            <mxPoint x="3420" y="1625" as="targetPoint" />
          </mxGeometry>
        </mxCell>
        <mxCell id="MD6l4VZ1lRJNJTrKG-ep-352" value="" style="endArrow=none;html=1;rounded=0;entryX=0;entryY=0.5;entryDx=0;entryDy=0;exitX=1;exitY=0.3333333333333333;exitDx=0;exitDy=0;exitPerimeter=0;" edge="1" source="MD6l4VZ1lRJNJTrKG-ep-349" target="MD6l4VZ1lRJNJTrKG-ep-348" parent="1">
          <mxGeometry width="50" height="50" relative="1" as="geometry">
            <mxPoint x="3350" y="1695" as="sourcePoint" />
            <mxPoint x="3448" y="1870" as="targetPoint" />
          </mxGeometry>
        </mxCell>
        <mxCell id="MD6l4VZ1lRJNJTrKG-ep-353" value="" style="endArrow=none;html=1;rounded=0;entryX=0;entryY=0.5;entryDx=0;entryDy=0;" edge="1" target="MD6l4VZ1lRJNJTrKG-ep-348" parent="1">
          <mxGeometry width="50" height="50" relative="1" as="geometry">
            <mxPoint x="3340" y="1885" as="sourcePoint" />
            <mxPoint x="3450" y="1755" as="targetPoint" />
          </mxGeometry>
        </mxCell>
        <mxCell id="MD6l4VZ1lRJNJTrKG-ep-475" value="Cambiar Estado" style="swimlane;fontStyle=1;align=center;verticalAlign=top;childLayout=stackLayout;horizontal=1;startSize=26;horizontalStack=0;resizeParent=1;resizeParentMax=0;resizeLast=0;collapsible=1;marginBottom=0;whiteSpace=wrap;html=1;" vertex="1" parent="1">
          <mxGeometry x="2910" y="555" width="160" height="112" as="geometry" />
        </mxCell>
        <mxCell id="MD6l4VZ1lRJNJTrKG-ep-476" value="numeroTickets" style="text;strokeColor=none;fillColor=none;align=left;verticalAlign=top;spacingLeft=4;spacingRight=4;overflow=hidden;rotatable=0;points=[[0,0.5],[1,0.5]];portConstraint=eastwest;whiteSpace=wrap;html=1;" vertex="1" parent="MD6l4VZ1lRJNJTrKG-ep-475">
          <mxGeometry y="26" width="160" height="26" as="geometry" />
        </mxCell>
        <mxCell id="MD6l4VZ1lRJNJTrKG-ep-477" value="nuevoEstado" style="text;strokeColor=none;fillColor=none;align=left;verticalAlign=top;spacingLeft=4;spacingRight=4;overflow=hidden;rotatable=0;points=[[0,0.5],[1,0.5]];portConstraint=eastwest;whiteSpace=wrap;html=1;" vertex="1" parent="MD6l4VZ1lRJNJTrKG-ep-475">
          <mxGeometry y="52" width="160" height="26" as="geometry" />
        </mxCell>
        <mxCell id="MD6l4VZ1lRJNJTrKG-ep-478" value="comentario" style="text;strokeColor=none;fillColor=none;align=left;verticalAlign=top;spacingLeft=4;spacingRight=4;overflow=hidden;rotatable=0;points=[[0,0.5],[1,0.5]];portConstraint=eastwest;whiteSpace=wrap;html=1;" vertex="1" parent="MD6l4VZ1lRJNJTrKG-ep-475">
          <mxGeometry y="78" width="160" height="26" as="geometry" />
        </mxCell>
        <mxCell id="MD6l4VZ1lRJNJTrKG-ep-479" value="" style="line;strokeWidth=1;fillColor=none;align=left;verticalAlign=middle;spacingTop=-1;spacingLeft=3;spacingRight=3;rotatable=0;labelPosition=right;points=[];portConstraint=eastwest;strokeColor=inherit;" vertex="1" parent="MD6l4VZ1lRJNJTrKG-ep-475">
          <mxGeometry y="104" width="160" height="8" as="geometry" />
        </mxCell>
        <mxCell id="MD6l4VZ1lRJNJTrKG-ep-497" value="Extends" style="endArrow=block;endSize=16;endFill=0;html=1;rounded=0;entryX=0;entryY=0.5;entryDx=0;entryDy=0;exitX=0.5;exitY=0;exitDx=0;exitDy=0;" edge="1" parent="1" source="kgnqb2DBGd6a5PuqriNk-236" target="MD6l4VZ1lRJNJTrKG-ep-477">
          <mxGeometry width="160" relative="1" as="geometry">
            <mxPoint x="2630" y="930" as="sourcePoint" />
            <mxPoint x="2740" y="838" as="targetPoint" />
          </mxGeometry>
        </mxCell>
        <mxCell id="MD6l4VZ1lRJNJTrKG-ep-501" value="Extends" style="endArrow=block;endSize=16;endFill=0;html=1;rounded=0;entryX=0.491;entryY=0.779;entryDx=0;entryDy=0;exitX=0.5;exitY=0;exitDx=0;exitDy=0;entryPerimeter=0;" edge="1" parent="1" source="kgnqb2DBGd6a5PuqriNk-242" target="kgnqb2DBGd6a5PuqriNk-293">
          <mxGeometry width="160" relative="1" as="geometry">
            <mxPoint x="2760" y="890" as="sourcePoint" />
            <mxPoint x="2870" y="700" as="targetPoint" />
          </mxGeometry>
        </mxCell>
        <mxCell id="MD6l4VZ1lRJNJTrKG-ep-502" value="Extends" style="endArrow=block;endSize=16;endFill=0;html=1;rounded=0;entryX=0.525;entryY=0.449;entryDx=0;entryDy=0;exitX=0.5;exitY=0;exitDx=0;exitDy=0;entryPerimeter=0;" edge="1" parent="1" source="kgnqb2DBGd6a5PuqriNk-242" target="kgnqb2DBGd6a5PuqriNk-224">
          <mxGeometry width="160" relative="1" as="geometry">
            <mxPoint x="2820" y="830" as="sourcePoint" />
            <mxPoint x="2719" y="673" as="targetPoint" />
          </mxGeometry>
        </mxCell>
        <mxCell id="MD6l4VZ1lRJNJTrKG-ep-503" value="Extends" style="endArrow=block;endSize=16;endFill=0;html=1;rounded=0;entryX=0.476;entryY=0.873;entryDx=0;entryDy=0;entryPerimeter=0;exitX=0.5;exitY=0;exitDx=0;exitDy=0;" edge="1" parent="1" source="kgnqb2DBGd6a5PuqriNk-232" target="MD6l4VZ1lRJNJTrKG-ep-478">
          <mxGeometry width="160" relative="1" as="geometry">
            <mxPoint x="3000" y="880" as="sourcePoint" />
            <mxPoint x="2900" y="869" as="targetPoint" />
          </mxGeometry>
        </mxCell>
      </root>
    </mxGraphModel>
  </diagram>
</mxfile>
